STARTFONT 2.1
COMMENT
COMMENT Converted from OpenType font "BeVietnam-Thin.ttf" by "otf2bdf 3.0".
COMMENT
FONT -FreeType-Be Vietnam Thin-Medium-R-Normal--19-140-100-100-P-87-ISO10646-1
SIZE 14 100 100
FONTBOUNDINGBOX 30 25 -7 -5
STARTPROPERTIES 19
FOUNDRY "FreeType"
FAMILY_NAME "Be Vietnam Thin"
WEIGHT_NAME "Medium"
SLANT "R"
SETWIDTH_NAME "Normal"
ADD_STYLE_NAME ""
PIXEL_SIZE 19
POINT_SIZE 140
RESOLUTION_X 100
RESOLUTION_Y 100
SPACING "P"
AVERAGE_WIDTH 87
CHARSET_REGISTRY "ISO10646"
CHARSET_ENCODING "1"
FONT_ASCENT 22
FONT_DESCENT 5
COPYRIGHT "Copyright 2019 The Bevietnam Project Authors (https://github.com/bettergui/beVietnam)"
_OTF_FONTFILE "BeVietnam-Thin.ttf"
_OTF_PSNAME "BeVietnam-Thin"
ENDPROPERTIES
CHARS 445
STARTCHAR 000D
ENCODING 13
SWIDTH 565 0
DWIDTH 11 0
BBX 0 0 0 0
BITMAP
ENDCHAR
STARTCHAR 0020
ENCODING 32
SWIDTH 205 0
DWIDTH 4 0
BBX 0 0 0 0
BITMAP
ENDCHAR
STARTCHAR 0021
ENCODING 33
SWIDTH 205 0
DWIDTH 4 0
BBX 2 15 1 0
BITMAP
80
80
80
80
80
80
80
80
80
80
80
00
00
00
C0
ENDCHAR
STARTCHAR 0022
ENCODING 34
SWIDTH 462 0
DWIDTH 9 0
BBX 6 4 2 10
BITMAP
88
88
CC
CC
ENDCHAR
STARTCHAR 0023
ENCODING 35
SWIDTH 822 0
DWIDTH 16 0
BBX 13 14 2 0
BITMAP
0420
0420
0840
0840
FFF8
0840
1080
1080
1080
FFF8
1080
2100
2100
2100
ENDCHAR
STARTCHAR 0024
ENCODING 36
SWIDTH 514 0
DWIDTH 10 0
BBX 9 16 1 -1
BITMAP
0800
0800
7E00
8900
8900
8800
8800
4800
3E00
0900
0880
8880
8900
4900
3E00
0800
ENDCHAR
STARTCHAR 0025
ENCODING 37
SWIDTH 822 0
DWIDTH 16 0
BBX 16 14 0 0
BITMAP
3010
4810
8420
8420
4840
3040
0080
0080
0100
021F
0211
0411
0411
081E
ENDCHAR
STARTCHAR 0026
ENCODING 38
SWIDTH 565 0
DWIDTH 11 0
BBX 11 14 1 0
BITMAP
0E00
1180
2080
2080
1000
1000
0800
3400
4240
8180
8080
8180
4240
3C20
ENDCHAR
STARTCHAR 0027
ENCODING 39
SWIDTH 257 0
DWIDTH 5 0
BBX 2 4 2 11
BITMAP
80
40
80
80
ENDCHAR
STARTCHAR 0028
ENCODING 40
SWIDTH 411 0
DWIDTH 8 0
BBX 5 19 2 -4
BITMAP
08
10
20
40
40
40
80
80
80
80
80
80
80
40
40
40
20
10
08
ENDCHAR
STARTCHAR 0029
ENCODING 41
SWIDTH 411 0
DWIDTH 8 0
BBX 5 19 1 -4
BITMAP
80
40
20
10
10
08
08
08
08
08
08
08
08
08
10
10
20
40
80
ENDCHAR
STARTCHAR 002A
ENCODING 42
SWIDTH 462 0
DWIDTH 9 0
BBX 6 7 2 8
BITMAP
20
A4
EC
30
FC
24
20
ENDCHAR
STARTCHAR 002B
ENCODING 43
SWIDTH 565 0
DWIDTH 11 0
BBX 7 8 2 2
BITMAP
10
10
10
10
FE
10
10
10
ENDCHAR
STARTCHAR 002C
ENCODING 44
SWIDTH 205 0
DWIDTH 4 0
BBX 1 3 2 -3
BITMAP
80
80
80
ENDCHAR
STARTCHAR 002D
ENCODING 45
SWIDTH 565 0
DWIDTH 11 0
BBX 6 1 3 6
BITMAP
FC
ENDCHAR
STARTCHAR 002E
ENCODING 46
SWIDTH 205 0
DWIDTH 4 0
BBX 2 1 1 0
BITMAP
C0
ENDCHAR
STARTCHAR 002F
ENCODING 47
SWIDTH 462 0
DWIDTH 9 0
BBX 7 18 2 -2
BITMAP
02
04
04
04
08
08
08
10
10
20
20
20
40
40
40
80
80
80
ENDCHAR
STARTCHAR 0030
ENCODING 48
SWIDTH 565 0
DWIDTH 11 0
BBX 9 14 1 0
BITMAP
1E00
6100
4080
8080
8080
8080
8080
8080
8080
8080
8080
8080
4100
3E00
ENDCHAR
STARTCHAR 0031
ENCODING 49
SWIDTH 462 0
DWIDTH 9 0
BBX 6 13 2 1
BITMAP
60
A0
20
20
20
20
20
20
20
20
20
20
FC
ENDCHAR
STARTCHAR 0032
ENCODING 50
SWIDTH 565 0
DWIDTH 11 0
BBX 8 14 2 0
BITMAP
3C
42
81
81
01
01
02
02
04
08
10
20
C0
FF
ENDCHAR
STARTCHAR 0033
ENCODING 51
SWIDTH 565 0
DWIDTH 11 0
BBX 8 14 2 0
BITMAP
3C
42
81
01
01
01
06
1E
01
01
01
01
81
7E
ENDCHAR
STARTCHAR 0034
ENCODING 52
SWIDTH 565 0
DWIDTH 11 0
BBX 9 14 1 0
BITMAP
0200
0600
0600
0A00
1200
1200
2200
4200
4200
8200
7F80
0200
0200
0200
ENDCHAR
STARTCHAR 0035
ENCODING 53
SWIDTH 565 0
DWIDTH 11 0
BBX 9 14 2 0
BITMAP
7F00
8000
8000
8000
8000
BE00
C100
0100
0080
0080
0100
8100
4100
3E00
ENDCHAR
STARTCHAR 0036
ENCODING 54
SWIDTH 565 0
DWIDTH 11 0
BBX 9 14 1 0
BITMAP
0400
0800
1000
1000
2000
4000
7F00
4100
8080
8080
8080
8080
4100
3E00
ENDCHAR
STARTCHAR 0037
ENCODING 55
SWIDTH 462 0
DWIDTH 9 0
BBX 8 14 1 0
BITMAP
FF
02
02
02
04
04
08
08
08
10
10
20
20
40
ENDCHAR
STARTCHAR 0038
ENCODING 56
SWIDTH 565 0
DWIDTH 11 0
BBX 10 14 1 0
BITMAP
1E00
2100
4080
4080
4080
4080
3F00
2100
C080
8040
8040
8080
4080
3F00
ENDCHAR
STARTCHAR 0039
ENCODING 57
SWIDTH 565 0
DWIDTH 11 0
BBX 9 14 1 0
BITMAP
1E00
6100
8080
8080
8080
8080
4080
6180
1F00
0100
0200
0400
0400
0800
ENDCHAR
STARTCHAR 003A
ENCODING 58
SWIDTH 205 0
DWIDTH 4 0
BBX 2 10 1 0
BITMAP
C0
00
00
00
00
00
00
00
00
C0
ENDCHAR
STARTCHAR 003B
ENCODING 59
SWIDTH 257 0
DWIDTH 5 0
BBX 1 12 2 -3
BITMAP
80
00
00
00
00
00
00
00
00
80
80
80
ENDCHAR
STARTCHAR 003C
ENCODING 60
SWIDTH 514 0
DWIDTH 10 0
BBX 6 7 2 2
BITMAP
04
18
60
80
40
30
0C
ENDCHAR
STARTCHAR 003D
ENCODING 61
SWIDTH 668 0
DWIDTH 13 0
BBX 9 5 2 4
BITMAP
FF80
0000
0000
0000
7F80
ENDCHAR
STARTCHAR 003E
ENCODING 62
SWIDTH 514 0
DWIDTH 10 0
BBX 7 8 2 2
BITMAP
C0
30
08
06
0C
10
60
80
ENDCHAR
STARTCHAR 003F
ENCODING 63
SWIDTH 565 0
DWIDTH 11 0
BBX 9 14 1 0
BITMAP
1E00
6100
8080
8080
0080
0100
0100
0200
0400
0800
0800
0000
0000
0800
ENDCHAR
STARTCHAR 0040
ENCODING 64
SWIDTH 977 0
DWIDTH 19 0
BBX 17 17 1 -3
BITMAP
03E000
0C1C00
100200
200100
400080
43E080
842080
882080
882080
882080
842080
845100
438E00
400000
200000
180000
07FE00
ENDCHAR
STARTCHAR 0041
ENCODING 65
SWIDTH 668 0
DWIDTH 13 0
BBX 11 14 1 0
BITMAP
0400
0400
0A00
0A00
1100
1100
1100
2080
2080
5F40
4040
4040
8020
8020
ENDCHAR
STARTCHAR 0042
ENCODING 66
SWIDTH 617 0
DWIDTH 12 0
BBX 9 14 2 0
BITMAP
FC00
8300
8080
8080
8080
8100
8200
FF00
8080
8080
8080
8080
8080
FF00
ENDCHAR
STARTCHAR 0043
ENCODING 67
SWIDTH 720 0
DWIDTH 14 0
BBX 12 14 1 0
BITMAP
0F80
3040
4020
4010
8010
8000
8000
8000
8000
8000
4010
4020
2040
1F80
ENDCHAR
STARTCHAR 0044
ENCODING 68
SWIDTH 668 0
DWIDTH 13 0
BBX 11 14 2 0
BITMAP
FC00
8300
8080
8040
8040
8040
8040
8020
8040
8040
8040
8080
8180
FE00
ENDCHAR
STARTCHAR 0045
ENCODING 69
SWIDTH 565 0
DWIDTH 11 0
BBX 8 14 2 0
BITMAP
FF
80
80
80
80
80
80
FC
80
80
80
80
80
FF
ENDCHAR
STARTCHAR 0046
ENCODING 70
SWIDTH 514 0
DWIDTH 10 0
BBX 7 14 2 0
BITMAP
FE
80
80
80
80
80
80
FC
80
80
80
80
80
80
ENDCHAR
STARTCHAR 0047
ENCODING 71
SWIDTH 668 0
DWIDTH 13 0
BBX 12 14 1 0
BITMAP
0F00
30C0
4020
4020
8000
8000
8000
83F0
8010
8010
4010
4030
2050
1F90
ENDCHAR
STARTCHAR 0048
ENCODING 72
SWIDTH 668 0
DWIDTH 13 0
BBX 9 13 2 1
BITMAP
8080
8080
8080
8080
8080
8080
FF80
8080
8080
8080
8080
8080
8080
ENDCHAR
STARTCHAR 0049
ENCODING 73
SWIDTH 205 0
DWIDTH 4 0
BBX 1 13 2 1
BITMAP
80
80
80
80
80
80
80
80
80
80
80
80
80
ENDCHAR
STARTCHAR 004A
ENCODING 74
SWIDTH 308 0
DWIDTH 6 0
BBX 3 13 1 1
BITMAP
20
20
20
20
20
20
20
20
20
20
20
20
E0
ENDCHAR
STARTCHAR 004B
ENCODING 75
SWIDTH 565 0
DWIDTH 11 0
BBX 8 14 2 0
BITMAP
02
84
84
88
90
A0
C0
A0
90
90
88
84
82
81
ENDCHAR
STARTCHAR 004C
ENCODING 76
SWIDTH 514 0
DWIDTH 10 0
BBX 7 13 2 1
BITMAP
80
80
80
80
80
80
80
80
80
80
80
80
FE
ENDCHAR
STARTCHAR 004D
ENCODING 77
SWIDTH 771 0
DWIDTH 15 0
BBX 12 14 2 0
BITMAP
8010
8030
C030
C050
C050
A050
A090
9090
9110
9110
8910
8A10
8610
8410
ENDCHAR
STARTCHAR 004E
ENCODING 78
SWIDTH 720 0
DWIDTH 14 0
BBX 10 14 2 0
BITMAP
8000
8040
C040
A040
A040
9040
8840
8440
8440
8240
8140
80C0
80C0
8040
ENDCHAR
STARTCHAR 004F
ENCODING 79
SWIDTH 720 0
DWIDTH 14 0
BBX 12 14 1 0
BITMAP
0F80
3040
4020
4010
8010
8010
8010
8010
8010
8010
4010
4020
2040
1F80
ENDCHAR
STARTCHAR 0050
ENCODING 80
SWIDTH 565 0
DWIDTH 11 0
BBX 9 14 2 0
BITMAP
F800
8600
8100
8100
8080
8100
8100
8100
FE00
8000
8000
8000
8000
8000
ENDCHAR
STARTCHAR 0051
ENCODING 81
SWIDTH 720 0
DWIDTH 14 0
BBX 12 15 1 -1
BITMAP
0F80
3040
4020
4010
8010
8010
8010
8010
8010
8210
4110
40A0
2040
1FC0
0020
ENDCHAR
STARTCHAR 0052
ENCODING 82
SWIDTH 565 0
DWIDTH 11 0
BBX 9 14 2 0
BITMAP
F800
8600
8100
8100
8080
8100
8100
FE00
8800
8800
8400
8200
8200
8100
ENDCHAR
STARTCHAR 0053
ENCODING 83
SWIDTH 565 0
DWIDTH 11 0
BBX 9 14 1 0
BITMAP
1E00
6100
4080
8080
8000
4000
3000
0F00
0080
0080
8080
8080
4080
3F00
ENDCHAR
STARTCHAR 0054
ENCODING 84
SWIDTH 565 0
DWIDTH 11 0
BBX 9 14 1 0
BITMAP
FF80
0800
0800
0800
0800
0800
0800
0800
0800
0800
0800
0800
0800
0800
ENDCHAR
STARTCHAR 0055
ENCODING 85
SWIDTH 668 0
DWIDTH 13 0
BBX 11 14 1 0
BITMAP
8020
8020
8020
8020
8020
8020
8020
8020
8020
8020
8040
4040
4040
3F80
ENDCHAR
STARTCHAR 0056
ENCODING 86
SWIDTH 565 0
DWIDTH 11 0
BBX 11 14 0 0
BITMAP
8000
8020
4020
4040
2040
2040
2080
1080
1080
1100
0900
0A00
0600
0600
ENDCHAR
STARTCHAR 0057
ENCODING 87
SWIDTH 977 0
DWIDTH 19 0
BBX 19 14 0 0
BITMAP
804020
804020
40A040
40A040
40A040
411080
211080
211080
220880
120900
120900
140500
140600
0C0600
ENDCHAR
STARTCHAR 0058
ENCODING 88
SWIDTH 617 0
DWIDTH 12 0
BBX 10 14 1 0
BITMAP
8000
4040
4080
2100
1100
1200
0C00
0C00
0A00
1200
2100
2080
4080
8040
ENDCHAR
STARTCHAR 0059
ENCODING 89
SWIDTH 565 0
DWIDTH 11 0
BBX 9 14 1 0
BITMAP
8080
8080
4100
4100
2200
2200
1400
1400
0800
0800
0800
0800
0800
0800
ENDCHAR
STARTCHAR 005A
ENCODING 90
SWIDTH 565 0
DWIDTH 11 0
BBX 9 14 1 0
BITMAP
FF80
0080
0100
0100
0200
0400
0400
0800
1000
1000
2000
4000
4000
FF80
ENDCHAR
STARTCHAR 005B
ENCODING 91
SWIDTH 360 0
DWIDTH 7 0
BBX 4 19 2 -3
BITMAP
F0
80
80
80
80
80
80
80
80
80
80
80
80
80
80
80
80
80
F0
ENDCHAR
STARTCHAR 005C
ENCODING 92
SWIDTH 462 0
DWIDTH 9 0
BBX 7 17 1 -1
BITMAP
80
80
80
40
40
20
20
20
10
10
10
08
08
04
04
04
02
ENDCHAR
STARTCHAR 005D
ENCODING 93
SWIDTH 360 0
DWIDTH 7 0
BBX 4 19 2 -3
BITMAP
F0
10
10
10
10
10
10
10
10
10
10
10
10
10
10
10
10
10
F0
ENDCHAR
STARTCHAR 005E
ENCODING 94
SWIDTH 411 0
DWIDTH 8 0
BBX 6 3 1 12
BITMAP
30
48
84
ENDCHAR
STARTCHAR 005F
ENCODING 95
SWIDTH 668 0
DWIDTH 13 0
BBX 10 1 2 0
BITMAP
FFC0
ENDCHAR
STARTCHAR 0060
ENCODING 96
SWIDTH 154 0
DWIDTH 3 0
BBX 2 2 1 12
BITMAP
80
40
ENDCHAR
STARTCHAR 0061
ENCODING 97
SWIDTH 617 0
DWIDTH 12 0
BBX 9 11 1 0
BITMAP
0800
3680
4180
8080
8080
8080
8080
8080
8080
4180
3E80
ENDCHAR
STARTCHAR 0062
ENCODING 98
SWIDTH 617 0
DWIDTH 12 0
BBX 9 14 2 1
BITMAP
8000
8000
8000
8800
B600
C100
8080
8080
8080
8080
8080
8100
C100
BE00
ENDCHAR
STARTCHAR 0063
ENCODING 99
SWIDTH 565 0
DWIDTH 11 0
BBX 9 11 1 0
BITMAP
0C00
3300
4080
8080
8000
8000
8000
8000
4080
4100
3E00
ENDCHAR
STARTCHAR 0064
ENCODING 100
SWIDTH 617 0
DWIDTH 12 0
BBX 9 14 1 1
BITMAP
0080
0080
0080
0880
3680
4180
8080
8080
8080
8080
8080
8080
4180
3E80
ENDCHAR
STARTCHAR 0065
ENCODING 101
SWIDTH 565 0
DWIDTH 11 0
BBX 9 11 1 0
BITMAP
0800
3700
4080
8080
8080
FF80
8000
8000
4080
4100
3E00
ENDCHAR
STARTCHAR 0066
ENCODING 102
SWIDTH 308 0
DWIDTH 6 0
BBX 3 14 2 0
BITMAP
60
80
80
80
E0
80
80
80
80
80
80
80
80
80
ENDCHAR
STARTCHAR 0067
ENCODING 103
SWIDTH 617 0
DWIDTH 12 0
BBX 9 15 1 -4
BITMAP
0C00
3380
4180
8080
8080
8080
8080
8080
4180
2180
1E80
0080
0080
0100
0E00
ENDCHAR
STARTCHAR 0068
ENCODING 104
SWIDTH 617 0
DWIDTH 12 0
BBX 9 14 2 1
BITMAP
8000
8000
8000
8800
B600
C100
8100
8100
8080
8080
8080
8080
8080
8080
ENDCHAR
STARTCHAR 0069
ENCODING 105
SWIDTH 205 0
DWIDTH 4 0
BBX 2 13 1 1
BITMAP
40
00
00
80
80
80
80
80
80
80
80
80
80
ENDCHAR
STARTCHAR 006A
ENCODING 106
SWIDTH 205 0
DWIDTH 4 0
BBX 4 18 -1 -4
BITMAP
10
10
00
00
10
10
10
10
10
10
10
10
10
10
10
10
10
E0
ENDCHAR
STARTCHAR 006B
ENCODING 107
SWIDTH 462 0
DWIDTH 9 0
BBX 6 14 2 1
BITMAP
80
80
80
80
88
90
A0
C0
80
C0
A0
90
88
84
ENDCHAR
STARTCHAR 006C
ENCODING 108
SWIDTH 257 0
DWIDTH 5 0
BBX 3 14 2 1
BITMAP
80
80
80
80
80
80
80
80
80
80
80
80
80
E0
ENDCHAR
STARTCHAR 006D
ENCODING 109
SWIDTH 977 0
DWIDTH 19 0
BBX 16 11 2 0
BITMAP
0810
B66E
C182
8101
8101
8101
8101
8101
8101
8101
8101
ENDCHAR
STARTCHAR 006E
ENCODING 110
SWIDTH 617 0
DWIDTH 12 0
BBX 9 11 2 0
BITMAP
0800
B600
C100
8100
8100
8080
8080
8080
8080
8080
8080
ENDCHAR
STARTCHAR 006F
ENCODING 111
SWIDTH 565 0
DWIDTH 11 0
BBX 10 10 1 1
BITMAP
3700
4080
8080
8080
8040
8080
8080
4080
4100
3E00
ENDCHAR
STARTCHAR 0070
ENCODING 112
SWIDTH 617 0
DWIDTH 12 0
BBX 9 14 2 -4
BITMAP
0800
B600
C100
8080
8080
8080
8080
8080
8100
C100
BE00
8000
8000
8000
ENDCHAR
STARTCHAR 0071
ENCODING 113
SWIDTH 617 0
DWIDTH 12 0
BBX 9 14 1 -4
BITMAP
0800
3680
4180
8080
8080
8080
8080
8080
8080
4180
3E80
0080
0080
0080
ENDCHAR
STARTCHAR 0072
ENCODING 114
SWIDTH 308 0
DWIDTH 6 0
BBX 4 10 2 0
BITMAP
F0
80
80
80
80
80
80
80
80
80
ENDCHAR
STARTCHAR 0073
ENCODING 115
SWIDTH 462 0
DWIDTH 9 0
BBX 8 11 1 0
BITMAP
10
6E
82
80
C0
38
06
01
81
42
3C
ENDCHAR
STARTCHAR 0074
ENCODING 116
SWIDTH 360 0
DWIDTH 7 0
BBX 5 13 1 1
BITMAP
40
40
40
F8
40
40
40
40
40
40
40
40
38
ENDCHAR
STARTCHAR 0075
ENCODING 117
SWIDTH 565 0
DWIDTH 11 0
BBX 8 10 2 0
BITMAP
81
81
81
81
81
81
81
81
43
3D
ENDCHAR
STARTCHAR 0076
ENCODING 118
SWIDTH 514 0
DWIDTH 10 0
BBX 9 10 1 0
BITMAP
8080
8100
4100
4200
4200
2200
2400
1400
1800
0800
ENDCHAR
STARTCHAR 0077
ENCODING 119
SWIDTH 771 0
DWIDTH 15 0
BBX 14 10 1 0
BITMAP
8204
8308
8508
4508
4488
4890
2890
2850
3060
1020
ENDCHAR
STARTCHAR 0078
ENCODING 120
SWIDTH 514 0
DWIDTH 10 0
BBX 8 10 1 0
BITMAP
81
42
24
28
18
18
24
44
42
81
ENDCHAR
STARTCHAR 0079
ENCODING 121
SWIDTH 514 0
DWIDTH 10 0
BBX 8 14 1 -4
BITMAP
81
81
42
42
44
24
24
18
18
10
10
20
20
C0
ENDCHAR
STARTCHAR 007A
ENCODING 122
SWIDTH 462 0
DWIDTH 9 0
BBX 8 10 1 0
BITMAP
7F
02
04
08
08
10
20
40
40
FF
ENDCHAR
STARTCHAR 007B
ENCODING 123
SWIDTH 462 0
DWIDTH 9 0
BBX 5 20 3 -4
BITMAP
38
40
40
40
40
40
40
40
40
40
C0
40
40
40
40
40
40
40
40
38
ENDCHAR
STARTCHAR 007C
ENCODING 124
SWIDTH 257 0
DWIDTH 5 0
BBX 1 22 2 -4
BITMAP
80
80
80
80
80
80
80
80
80
80
80
80
80
80
80
80
80
80
80
80
80
80
ENDCHAR
STARTCHAR 007D
ENCODING 125
SWIDTH 462 0
DWIDTH 9 0
BBX 5 20 3 -4
BITMAP
E0
10
10
10
10
10
10
10
10
10
18
10
10
10
10
10
10
10
10
E0
ENDCHAR
STARTCHAR 007E
ENCODING 126
SWIDTH 514 0
DWIDTH 10 0
BBX 6 1 2 7
BITMAP
FC
ENDCHAR
STARTCHAR 00A0
ENCODING 160
SWIDTH 205 0
DWIDTH 4 0
BBX 0 0 0 0
BITMAP
ENDCHAR
STARTCHAR 00A1
ENCODING 161
SWIDTH 154 0
DWIDTH 3 0
BBX 2 14 1 -5
BITMAP
C0
00
00
80
80
80
80
80
80
80
80
80
80
80
ENDCHAR
STARTCHAR 00A2
ENCODING 162
SWIDTH 565 0
DWIDTH 11 0
BBX 9 13 1 -1
BITMAP
0800
0C00
3B00
4880
8880
8800
8800
8800
8800
4880
4900
3E00
0800
ENDCHAR
STARTCHAR 00A3
ENCODING 163
SWIDTH 565 0
DWIDTH 11 0
BBX 9 14 1 0
BITMAP
1E00
6100
4100
8100
8000
4000
4000
2000
FE00
1000
1000
2000
2000
FF80
ENDCHAR
STARTCHAR 00A4
ENCODING 164
SWIDTH 514 0
DWIDTH 10 0
BBX 7 8 2 3
BITMAP
12
EC
82
82
82
82
C4
3A
ENDCHAR
STARTCHAR 00A5
ENCODING 165
SWIDTH 565 0
DWIDTH 11 0
BBX 9 14 1 0
BITMAP
8080
8080
4100
4100
2200
2200
1400
1400
7F00
0800
7F00
0800
0800
0800
ENDCHAR
STARTCHAR 00A6
ENCODING 166
SWIDTH 257 0
DWIDTH 5 0
BBX 1 22 2 -4
BITMAP
80
80
80
80
80
80
80
80
80
80
00
00
00
80
80
80
80
80
80
80
80
80
ENDCHAR
STARTCHAR 00A7
ENCODING 167
SWIDTH 514 0
DWIDTH 10 0
BBX 8 14 1 0
BITMAP
3C
42
81
40
70
4F
81
81
41
3E
01
81
41
3E
ENDCHAR
STARTCHAR 00A8
ENCODING 168
SWIDTH 257 0
DWIDTH 5 0
BBX 3 2 1 12
BITMAP
A0
A0
ENDCHAR
STARTCHAR 00A9
ENCODING 169
SWIDTH 771 0
DWIDTH 15 0
BBX 14 14 1 0
BITMAP
0FC0
3020
4010
47C8
9848
9024
9004
9004
9024
9024
4CC8
4310
2030
1FC0
ENDCHAR
STARTCHAR 00AA
ENCODING 170
SWIDTH 102 0
DWIDTH 2 0
BBX 2 2 0 8
BITMAP
C0
C0
ENDCHAR
STARTCHAR 00AB
ENCODING 171
SWIDTH 565 0
DWIDTH 11 0
BBX 9 8 1 2
BITMAP
1080
2100
4200
8400
8400
4200
2100
1080
ENDCHAR
STARTCHAR 00AC
ENCODING 172
SWIDTH 617 0
DWIDTH 12 0
BBX 9 4 2 6
BITMAP
FF80
0080
0080
0080
ENDCHAR
STARTCHAR 00AD
ENCODING 173
SWIDTH 565 0
DWIDTH 11 0
BBX 6 1 3 6
BITMAP
FC
ENDCHAR
STARTCHAR 00AE
ENCODING 174
SWIDTH 308 0
DWIDTH 6 0
BBX 5 5 1 9
BITMAP
20
90
E8
C8
F0
ENDCHAR
STARTCHAR 00AF
ENCODING 175
SWIDTH 308 0
DWIDTH 6 0
BBX 5 1 1 12
BITMAP
F8
ENDCHAR
STARTCHAR 00B0
ENCODING 176
SWIDTH 257 0
DWIDTH 5 0
BBX 3 4 1 13
BITMAP
40
A0
A0
40
ENDCHAR
STARTCHAR 00B1
ENCODING 177
SWIDTH 565 0
DWIDTH 11 0
BBX 8 9 2 1
BITMAP
10
10
10
7E
10
10
00
00
FF
ENDCHAR
STARTCHAR 00B2
ENCODING 178
SWIDTH 257 0
DWIDTH 5 0
BBX 4 8 1 7
BITMAP
60
90
10
10
20
40
80
F0
ENDCHAR
STARTCHAR 00B3
ENCODING 179
SWIDTH 257 0
DWIDTH 5 0
BBX 4 8 1 7
BITMAP
60
90
10
10
30
10
10
E0
ENDCHAR
STARTCHAR 00B4
ENCODING 180
SWIDTH 154 0
DWIDTH 3 0
BBX 2 2 1 12
BITMAP
40
80
ENDCHAR
STARTCHAR 00B5
ENCODING 181
SWIDTH 617 0
DWIDTH 12 0
BBX 10 13 2 -4
BITMAP
8200
8200
8200
8200
8200
8200
8200
8200
8600
F940
8080
8000
8000
ENDCHAR
STARTCHAR 00B6
ENCODING 182
SWIDTH 462 0
DWIDTH 9 0
BBX 7 14 1 0
BITMAP
3E
FA
FA
FA
FA
FA
7A
0A
0A
0A
0A
0A
0A
0A
ENDCHAR
STARTCHAR 00B7
ENCODING 183
SWIDTH 205 0
DWIDTH 4 0
BBX 1 2 2 6
BITMAP
80
80
ENDCHAR
STARTCHAR 00B8
ENCODING 184
SWIDTH 205 0
DWIDTH 4 0
BBX 3 5 1 -5
BITMAP
80
C0
20
20
C0
ENDCHAR
STARTCHAR 00B9
ENCODING 185
SWIDTH 205 0
DWIDTH 4 0
BBX 3 8 1 7
BITMAP
40
C0
40
40
40
40
40
E0
ENDCHAR
STARTCHAR 00BA
ENCODING 186
SWIDTH 154 0
DWIDTH 3 0
BBX 3 2 0 8
BITMAP
E0
E0
ENDCHAR
STARTCHAR 00BB
ENCODING 187
SWIDTH 565 0
DWIDTH 11 0
BBX 9 8 1 2
BITMAP
8400
4200
2100
1080
1080
2100
4200
8400
ENDCHAR
STARTCHAR 00BC
ENCODING 188
SWIDTH 771 0
DWIDTH 15 0
BBX 13 14 1 0
BITMAP
4020
C040
4040
4080
4100
4100
4200
A210
0430
0830
0850
1090
1078
2010
ENDCHAR
STARTCHAR 00BD
ENCODING 189
SWIDTH 771 0
DWIDTH 15 0
BBX 14 14 1 0
BITMAP
4020
C020
4040
4080
4080
4100
4100
A238
0448
0408
0808
0810
1020
207C
ENDCHAR
STARTCHAR 00BE
ENCODING 190
SWIDTH 822 0
DWIDTH 16 0
BBX 14 14 1 0
BITMAP
6010
9020
1020
1040
3080
1080
9100
6108
0218
0418
0428
0848
083C
1008
ENDCHAR
STARTCHAR 00BF
ENCODING 191
SWIDTH 565 0
DWIDTH 11 0
BBX 9 14 1 -5
BITMAP
0C00
0000
0000
0800
0800
1000
2000
4000
8000
8000
8080
8080
4100
3E00
ENDCHAR
STARTCHAR 00C0
ENCODING 192
SWIDTH 668 0
DWIDTH 13 0
BBX 11 18 1 0
BITMAP
1000
0800
0800
0000
0400
0400
0A00
0A00
1100
1100
1100
2080
2080
5F40
4040
4040
8020
8020
ENDCHAR
STARTCHAR 00C1
ENCODING 193
SWIDTH 668 0
DWIDTH 13 0
BBX 11 18 1 0
BITMAP
0100
0200
0400
0000
0400
0400
0A00
0A00
1100
1100
1100
2080
2080
5F40
4040
4040
8020
8020
ENDCHAR
STARTCHAR 00C2
ENCODING 194
SWIDTH 668 0
DWIDTH 13 0
BBX 11 18 1 0
BITMAP
0400
0A00
1100
0000
0400
0400
0A00
0A00
1100
1100
1100
2080
2080
5F40
4040
4040
8020
8020
ENDCHAR
STARTCHAR 00C3
ENCODING 195
SWIDTH 668 0
DWIDTH 13 0
BBX 11 17 1 0
BITMAP
1D00
0200
0000
0400
0400
0A00
0A00
1100
1100
1100
2080
2080
5F40
4040
4040
8020
8020
ENDCHAR
STARTCHAR 00C4
ENCODING 196
SWIDTH 668 0
DWIDTH 13 0
BBX 11 17 1 0
BITMAP
0B00
0000
0000
0400
0400
0A00
0A00
1100
1100
1100
2080
2080
5F40
4040
4040
8020
8020
ENDCHAR
STARTCHAR 00C5
ENCODING 197
SWIDTH 668 0
DWIDTH 13 0
BBX 11 18 1 0
BITMAP
0E00
0A00
0400
0000
0400
0400
0A00
0A00
1100
1100
1100
2080
2080
5F40
4040
4040
8020
8020
ENDCHAR
STARTCHAR 00C6
ENCODING 198
SWIDTH 925 0
DWIDTH 18 0
BBX 16 14 1 0
BITMAP
01FF
0180
0280
0480
0480
0880
0880
10FE
1080
2F80
4080
4080
8080
80FF
ENDCHAR
STARTCHAR 00C7
ENCODING 199
SWIDTH 720 0
DWIDTH 14 0
BBX 12 19 1 -5
BITMAP
0F80
3040
4020
4010
8010
8000
8000
8000
8000
8000
4010
4020
2040
1F80
0200
0300
0080
0080
0300
ENDCHAR
STARTCHAR 00C8
ENCODING 200
SWIDTH 565 0
DWIDTH 11 0
BBX 8 18 2 0
BITMAP
40
20
10
00
FF
80
80
80
80
80
80
FC
80
80
80
80
80
FF
ENDCHAR
STARTCHAR 00C9
ENCODING 201
SWIDTH 565 0
DWIDTH 11 0
BBX 8 18 2 0
BITMAP
04
08
10
00
FF
80
80
80
80
80
80
FC
80
80
80
80
80
FF
ENDCHAR
STARTCHAR 00CA
ENCODING 202
SWIDTH 565 0
DWIDTH 11 0
BBX 8 18 2 0
BITMAP
10
28
44
00
FF
80
80
80
80
80
80
FC
80
80
80
80
80
FF
ENDCHAR
STARTCHAR 00CB
ENCODING 203
SWIDTH 565 0
DWIDTH 11 0
BBX 8 17 2 0
BITMAP
2C
00
00
FF
80
80
80
80
80
80
FC
80
80
80
80
80
FF
ENDCHAR
STARTCHAR 00CC
ENCODING 204
SWIDTH 205 0
DWIDTH 4 0
BBX 2 18 0 0
BITMAP
80
80
40
00
00
40
40
40
40
40
40
40
40
40
40
40
40
40
ENDCHAR
STARTCHAR 00CD
ENCODING 205
SWIDTH 205 0
DWIDTH 4 0
BBX 2 18 2 0
BITMAP
40
40
80
00
00
80
80
80
80
80
80
80
80
80
80
80
80
80
ENDCHAR
STARTCHAR 00CE
ENCODING 206
SWIDTH 205 0
DWIDTH 4 0
BBX 4 18 0 0
BITMAP
20
50
90
00
00
40
40
40
40
40
40
40
40
40
40
40
40
40
ENDCHAR
STARTCHAR 00CF
ENCODING 207
SWIDTH 205 0
DWIDTH 4 0
BBX 4 17 0 0
BITMAP
90
00
00
00
40
40
40
40
40
40
40
40
40
40
40
40
40
ENDCHAR
STARTCHAR 00D0
ENCODING 208
SWIDTH 720 0
DWIDTH 14 0
BBX 11 14 2 0
BITMAP
FC00
8300
80C0
8040
8020
8020
8020
F020
8020
8020
8040
8040
8080
FF00
ENDCHAR
STARTCHAR 00D1
ENCODING 209
SWIDTH 720 0
DWIDTH 14 0
BBX 10 17 2 0
BITMAP
3A00
0400
0000
8000
8040
C040
A040
A040
9040
8840
8440
8440
8240
8140
80C0
80C0
8040
ENDCHAR
STARTCHAR 00D2
ENCODING 210
SWIDTH 720 0
DWIDTH 14 0
BBX 12 18 1 0
BITMAP
0800
0400
0400
0000
0F80
3040
4020
4010
8010
8010
8010
8010
8010
8010
4010
4020
2040
1F80
ENDCHAR
STARTCHAR 00D3
ENCODING 211
SWIDTH 720 0
DWIDTH 14 0
BBX 12 18 1 0
BITMAP
0100
0100
0200
0000
0F80
3040
4020
4010
8010
8010
8010
8010
8010
8010
4010
4020
2040
1F80
ENDCHAR
STARTCHAR 00D4
ENCODING 212
SWIDTH 720 0
DWIDTH 14 0
BBX 12 18 1 0
BITMAP
0200
0500
0880
0000
0F80
3040
4020
4010
8010
8010
8010
8010
8010
8010
4010
4020
2040
1F80
ENDCHAR
STARTCHAR 00D5
ENCODING 213
SWIDTH 720 0
DWIDTH 14 0
BBX 12 17 1 0
BITMAP
0E80
0100
0000
0F80
3040
4020
4010
8010
8010
8010
8010
8010
8010
4010
4020
2040
1F80
ENDCHAR
STARTCHAR 00D6
ENCODING 214
SWIDTH 720 0
DWIDTH 14 0
BBX 12 17 1 0
BITMAP
0D00
0000
0000
0F80
3040
4020
4010
8010
8010
8010
8010
8010
8010
4010
4020
2040
1F80
ENDCHAR
STARTCHAR 00D7
ENCODING 215
SWIDTH 514 0
DWIDTH 10 0
BBX 6 6 2 3
BITMAP
84
48
30
30
48
04
ENDCHAR
STARTCHAR 00D8
ENCODING 216
SWIDTH 720 0
DWIDTH 14 0
BBX 12 15 1 -1
BITMAP
0FA0
3040
4060
4090
8110
8110
8210
8410
8410
8810
5010
5020
2040
3F80
4000
ENDCHAR
STARTCHAR 00D9
ENCODING 217
SWIDTH 668 0
DWIDTH 13 0
BBX 11 18 1 0
BITMAP
1000
0800
0400
0000
8020
8020
8020
8020
8020
8020
8020
8020
8020
8020
8040
4040
4040
3F80
ENDCHAR
STARTCHAR 00DA
ENCODING 218
SWIDTH 668 0
DWIDTH 13 0
BBX 11 18 1 0
BITMAP
0100
0200
0400
0000
8020
8020
8020
8020
8020
8020
8020
8020
8020
8020
8040
4040
4040
3F80
ENDCHAR
STARTCHAR 00DB
ENCODING 219
SWIDTH 668 0
DWIDTH 13 0
BBX 11 18 1 0
BITMAP
0400
0A00
1100
0000
8020
8020
8020
8020
8020
8020
8020
8020
8020
8020
8040
4040
4040
3F80
ENDCHAR
STARTCHAR 00DC
ENCODING 220
SWIDTH 668 0
DWIDTH 13 0
BBX 11 17 1 0
BITMAP
0B00
0000
0000
8020
8020
8020
8020
8020
8020
8020
8020
8020
8020
8040
4040
4040
3F80
ENDCHAR
STARTCHAR 00DD
ENCODING 221
SWIDTH 565 0
DWIDTH 11 0
BBX 9 18 1 0
BITMAP
0200
0400
0800
0000
8080
8080
4100
4100
2200
2200
1400
1400
0800
0800
0800
0800
0800
0800
ENDCHAR
STARTCHAR 00DE
ENCODING 222
SWIDTH 565 0
DWIDTH 11 0
BBX 9 13 2 1
BITMAP
8000
8000
FE00
8100
8100
8100
8080
8100
8100
8200
FC00
8000
8000
ENDCHAR
STARTCHAR 00DF
ENCODING 223
SWIDTH 514 0
DWIDTH 10 0
BBX 7 14 2 0
BITMAP
78
84
82
82
82
84
98
A4
82
82
82
82
82
BC
ENDCHAR
STARTCHAR 00E0
ENCODING 224
SWIDTH 617 0
DWIDTH 12 0
BBX 9 14 1 1
BITMAP
1000
0800
0000
0800
3680
4180
8080
8080
8080
8080
8080
8080
4180
3E80
ENDCHAR
STARTCHAR 00E1
ENCODING 225
SWIDTH 617 0
DWIDTH 12 0
BBX 9 15 1 0
BITMAP
0200
0200
0400
0000
0800
3680
4180
8080
8080
8080
8080
8080
8080
4180
3E80
ENDCHAR
STARTCHAR 00E2
ENCODING 226
SWIDTH 617 0
DWIDTH 12 0
BBX 9 14 1 0
BITMAP
0C00
1200
0000
0800
3680
4180
8080
8080
8080
8080
8080
8080
4180
3E80
ENDCHAR
STARTCHAR 00E3
ENCODING 227
SWIDTH 617 0
DWIDTH 12 0
BBX 9 14 1 0
BITMAP
1800
2600
0000
0800
3680
4180
8080
8080
8080
8080
8080
8080
4180
3E80
ENDCHAR
STARTCHAR 00E4
ENCODING 228
SWIDTH 617 0
DWIDTH 12 0
BBX 9 14 1 0
BITMAP
1200
1200
0000
0800
3680
4180
8080
8080
8080
8080
8080
8080
4180
3E80
ENDCHAR
STARTCHAR 00E5
ENCODING 229
SWIDTH 617 0
DWIDTH 12 0
BBX 9 15 1 0
BITMAP
1C00
1400
0C00
0000
0800
3680
4180
8080
8080
8080
8080
8080
8080
4180
3E80
ENDCHAR
STARTCHAR 00E6
ENCODING 230
SWIDTH 925 0
DWIDTH 18 0
BBX 17 11 1 0
BITMAP
000800
7E7600
818100
818100
010080
1FFF80
610000
808000
818100
824100
7C3E00
ENDCHAR
STARTCHAR 00E7
ENCODING 231
SWIDTH 565 0
DWIDTH 11 0
BBX 9 16 1 -5
BITMAP
0C00
3300
4080
8080
8000
8000
8000
8000
4080
4100
3E00
0800
0C00
0200
0200
0E00
ENDCHAR
STARTCHAR 00E8
ENCODING 232
SWIDTH 565 0
DWIDTH 11 0
BBX 9 15 1 0
BITMAP
2000
1000
1000
0800
0800
3700
4080
8080
8080
FF80
8000
8000
4080
4100
3E00
ENDCHAR
STARTCHAR 00E9
ENCODING 233
SWIDTH 565 0
DWIDTH 11 0
BBX 9 15 1 0
BITMAP
0200
0200
0400
0000
0800
3700
4080
8080
8080
FF80
8000
8000
4080
4100
3E00
ENDCHAR
STARTCHAR 00EA
ENCODING 234
SWIDTH 565 0
DWIDTH 11 0
BBX 9 14 1 0
BITMAP
0C00
1200
0000
0800
3700
4080
8080
8080
FF80
8000
8000
4080
4100
3E00
ENDCHAR
STARTCHAR 00EB
ENCODING 235
SWIDTH 565 0
DWIDTH 11 0
BBX 9 14 1 0
BITMAP
1200
1200
0000
0800
3700
4080
8080
8080
FF80
8000
8000
4080
4100
3E00
ENDCHAR
STARTCHAR 00EC
ENCODING 236
SWIDTH 205 0
DWIDTH 4 0
BBX 2 15 0 0
BITMAP
80
80
40
00
00
40
40
40
40
40
40
40
40
40
40
ENDCHAR
STARTCHAR 00ED
ENCODING 237
SWIDTH 205 0
DWIDTH 4 0
BBX 3 15 2 0
BITMAP
20
40
80
00
00
80
80
80
80
80
80
80
80
80
80
ENDCHAR
STARTCHAR 00EE
ENCODING 238
SWIDTH 205 0
DWIDTH 4 0
BBX 4 14 0 0
BITMAP
60
90
00
00
40
40
40
40
40
40
40
40
40
40
ENDCHAR
STARTCHAR 00EF
ENCODING 239
SWIDTH 205 0
DWIDTH 4 0
BBX 4 14 0 0
BITMAP
90
90
00
00
40
40
40
40
40
40
40
40
40
40
ENDCHAR
STARTCHAR 00F0
ENCODING 240
SWIDTH 617 0
DWIDTH 12 0
BBX 9 15 1 0
BITMAP
0C80
0300
0500
0080
0880
3780
4180
8080
8080
8080
8080
8080
8080
4100
3E00
ENDCHAR
STARTCHAR 00F1
ENCODING 241
SWIDTH 617 0
DWIDTH 12 0
BBX 9 14 2 0
BITMAP
3000
0C00
0000
0800
B600
C100
8100
8100
8080
8080
8080
8080
8080
8080
ENDCHAR
STARTCHAR 00F2
ENCODING 242
SWIDTH 565 0
DWIDTH 11 0
BBX 10 15 1 0
BITMAP
2000
1000
1000
0800
0000
3700
4080
8080
8080
8040
8080
8080
4080
4100
3E00
ENDCHAR
STARTCHAR 00F3
ENCODING 243
SWIDTH 565 0
DWIDTH 11 0
BBX 10 15 1 0
BITMAP
0200
0200
0400
0000
0000
3700
4080
8080
8080
8040
8080
8080
4080
4100
3E00
ENDCHAR
STARTCHAR 00F4
ENCODING 244
SWIDTH 565 0
DWIDTH 11 0
BBX 10 14 1 0
BITMAP
0C00
1200
0000
0000
3700
4080
8080
8080
8040
8080
8080
4080
4100
3E00
ENDCHAR
STARTCHAR 00F5
ENCODING 245
SWIDTH 565 0
DWIDTH 11 0
BBX 10 14 1 0
BITMAP
1800
2600
0000
0000
3700
4080
8080
8080
8040
8080
8080
4080
4100
3E00
ENDCHAR
STARTCHAR 00F6
ENCODING 246
SWIDTH 565 0
DWIDTH 11 0
BBX 10 14 1 0
BITMAP
1200
1200
0000
0000
3700
4080
8080
8080
8040
8080
8080
4080
4100
3E00
ENDCHAR
STARTCHAR 00F7
ENCODING 247
SWIDTH 565 0
DWIDTH 11 0
BBX 6 7 2 2
BITMAP
30
00
00
00
FC
00
30
ENDCHAR
STARTCHAR 00F8
ENCODING 248
SWIDTH 565 0
DWIDTH 11 0
BBX 10 12 1 -1
BITMAP
0900
3700
4280
8480
8480
8840
8880
9080
5080
6100
3E00
4000
ENDCHAR
STARTCHAR 00F9
ENCODING 249
SWIDTH 565 0
DWIDTH 11 0
BBX 8 15 2 0
BITMAP
40
20
20
10
00
81
81
81
81
81
81
81
81
43
3D
ENDCHAR
STARTCHAR 00FA
ENCODING 250
SWIDTH 565 0
DWIDTH 11 0
BBX 8 15 2 0
BITMAP
04
08
08
10
00
81
81
81
81
81
81
81
81
43
3D
ENDCHAR
STARTCHAR 00FB
ENCODING 251
SWIDTH 565 0
DWIDTH 11 0
BBX 8 14 2 0
BITMAP
18
24
40
00
81
81
81
81
81
81
81
81
43
3D
ENDCHAR
STARTCHAR 00FC
ENCODING 252
SWIDTH 565 0
DWIDTH 11 0
BBX 8 14 2 0
BITMAP
20
28
00
00
81
81
81
81
81
81
81
81
43
3D
ENDCHAR
STARTCHAR 00FD
ENCODING 253
SWIDTH 514 0
DWIDTH 10 0
BBX 8 18 1 -3
BITMAP
04
08
00
00
81
81
42
42
44
24
24
18
18
10
10
20
20
C0
ENDCHAR
STARTCHAR 00FE
ENCODING 254
SWIDTH 617 0
DWIDTH 12 0
BBX 9 18 2 -3
BITMAP
8000
8000
8000
8800
B600
C100
8080
8080
8080
8080
8080
8100
C100
BE00
8000
8000
8000
8000
ENDCHAR
STARTCHAR 00FF
ENCODING 255
SWIDTH 514 0
DWIDTH 10 0
BBX 8 18 1 -4
BITMAP
24
24
00
00
81
81
42
42
44
24
24
18
18
10
10
20
20
C0
ENDCHAR
STARTCHAR 0100
ENCODING 256
SWIDTH 668 0
DWIDTH 13 0
BBX 11 16 1 0
BITMAP
1F00
0000
0400
0400
0A00
0A00
1100
1100
1100
2080
2080
5F40
4040
4040
8020
8020
ENDCHAR
STARTCHAR 0101
ENCODING 257
SWIDTH 617 0
DWIDTH 12 0
BBX 9 13 1 0
BITMAP
3F00
0000
0800
3680
4180
8080
8080
8080
8080
8080
8080
4180
3E80
ENDCHAR
STARTCHAR 0102
ENCODING 258
SWIDTH 668 0
DWIDTH 13 0
BBX 11 17 1 0
BITMAP
1100
0E00
0000
0400
0400
0A00
0A00
1100
1100
1100
2080
2080
5F40
4040
4040
8020
8020
ENDCHAR
STARTCHAR 0103
ENCODING 259
SWIDTH 617 0
DWIDTH 12 0
BBX 9 14 1 0
BITMAP
2100
1E00
0000
0800
3680
4180
8080
8080
8080
8080
8080
8080
4180
3E80
ENDCHAR
STARTCHAR 0104
ENCODING 260
SWIDTH 668 0
DWIDTH 13 0
BBX 12 17 1 -3
BITMAP
0400
0400
0A00
0A00
1100
1100
1100
2080
2080
5F40
4040
4040
8020
8020
0020
0040
0030
ENDCHAR
STARTCHAR 0105
ENCODING 261
SWIDTH 617 0
DWIDTH 12 0
BBX 10 14 1 -3
BITMAP
0800
3680
4180
8080
8080
8080
8080
8080
8080
4180
3E80
0080
0100
00C0
ENDCHAR
STARTCHAR 0106
ENCODING 262
SWIDTH 720 0
DWIDTH 14 0
BBX 12 18 1 0
BITMAP
0100
0200
0200
0000
0F80
3040
4020
4010
8010
8000
8000
8000
8000
8000
4010
4020
2040
1F80
ENDCHAR
STARTCHAR 0107
ENCODING 263
SWIDTH 565 0
DWIDTH 11 0
BBX 9 15 1 0
BITMAP
0200
0200
0400
0000
0C00
3300
4080
8080
8000
8000
8000
8000
4080
4100
3E00
ENDCHAR
STARTCHAR 010A
ENCODING 266
SWIDTH 720 0
DWIDTH 14 0
BBX 12 17 1 0
BITMAP
0600
0000
0000
0F80
3040
4020
4010
8010
8000
8000
8000
8000
8000
4010
4020
2040
1F80
ENDCHAR
STARTCHAR 010B
ENCODING 267
SWIDTH 565 0
DWIDTH 11 0
BBX 9 13 1 1
BITMAP
0800
0000
0C00
3300
4080
8080
8000
8000
8000
8000
4080
4100
3E00
ENDCHAR
STARTCHAR 010C
ENCODING 268
SWIDTH 720 0
DWIDTH 14 0
BBX 12 18 1 0
BITMAP
1080
0900
0600
0000
0F80
3040
4020
4010
8010
8000
8000
8000
8000
8000
4010
4020
2040
1F80
ENDCHAR
STARTCHAR 010D
ENCODING 269
SWIDTH 565 0
DWIDTH 11 0
BBX 9 14 1 0
BITMAP
1200
0C00
0000
0C00
3300
4080
8080
8000
8000
8000
8000
4080
4100
3E00
ENDCHAR
STARTCHAR 010E
ENCODING 270
SWIDTH 668 0
DWIDTH 13 0
BBX 11 18 2 0
BITMAP
2200
1400
0800
0000
FC00
8300
8080
8040
8040
8040
8040
8020
8040
8040
8040
8080
8180
FE00
ENDCHAR
STARTCHAR 010F
ENCODING 271
SWIDTH 668 0
DWIDTH 13 0
BBX 12 15 1 0
BITMAP
0010
00B0
0090
0090
0880
3680
4180
8080
8080
8080
8080
8080
8080
4180
3E80
ENDCHAR
STARTCHAR 0110
ENCODING 272
SWIDTH 720 0
DWIDTH 14 0
BBX 11 14 2 0
BITMAP
FC00
8300
80C0
8040
8020
8020
8020
F020
8020
8020
8040
8040
8080
FF00
ENDCHAR
STARTCHAR 0111
ENCODING 273
SWIDTH 617 0
DWIDTH 12 0
BBX 11 14 1 1
BITMAP
0080
07E0
0080
0880
3680
4180
8080
8080
8080
8080
8080
8080
4180
3E80
ENDCHAR
STARTCHAR 0112
ENCODING 274
SWIDTH 565 0
DWIDTH 11 0
BBX 8 16 2 0
BITMAP
7C
00
FF
80
80
80
80
80
80
FC
80
80
80
80
80
FF
ENDCHAR
STARTCHAR 0113
ENCODING 275
SWIDTH 565 0
DWIDTH 11 0
BBX 9 13 1 0
BITMAP
3F00
0000
0800
3700
4080
8080
8080
FF80
8000
8000
4080
4100
3E00
ENDCHAR
STARTCHAR 0116
ENCODING 278
SWIDTH 565 0
DWIDTH 11 0
BBX 8 17 2 0
BITMAP
10
00
00
FF
80
80
80
80
80
80
FC
80
80
80
80
80
FF
ENDCHAR
STARTCHAR 0117
ENCODING 279
SWIDTH 565 0
DWIDTH 11 0
BBX 9 14 1 0
BITMAP
0800
0800
0000
0800
3700
4080
8080
8080
FF80
8000
8000
4080
4100
3E00
ENDCHAR
STARTCHAR 0118
ENCODING 280
SWIDTH 565 0
DWIDTH 11 0
BBX 8 17 2 -3
BITMAP
FF
80
80
80
80
80
80
FC
80
80
80
80
80
FF
02
04
03
ENDCHAR
STARTCHAR 0119
ENCODING 281
SWIDTH 565 0
DWIDTH 11 0
BBX 9 14 1 -3
BITMAP
0800
3700
4080
8080
8080
FF80
8000
8000
4080
4100
3E00
0800
1000
0C00
ENDCHAR
STARTCHAR 011A
ENCODING 282
SWIDTH 565 0
DWIDTH 11 0
BBX 8 18 2 0
BITMAP
40
2C
18
00
FF
80
80
80
80
80
80
FC
80
80
80
80
80
FF
ENDCHAR
STARTCHAR 011B
ENCODING 283
SWIDTH 565 0
DWIDTH 11 0
BBX 9 14 1 0
BITMAP
1200
1400
0800
0800
3700
4080
8080
8080
FF80
8000
8000
4080
4100
3E00
ENDCHAR
STARTCHAR 011E
ENCODING 286
SWIDTH 668 0
DWIDTH 13 0
BBX 12 17 1 0
BITMAP
1080
0F00
0000
0F00
30C0
4020
4020
8000
8000
8000
83F0
8010
8010
4010
4030
2050
1F90
ENDCHAR
STARTCHAR 011F
ENCODING 287
SWIDTH 617 0
DWIDTH 12 0
BBX 9 18 1 -4
BITMAP
2100
1E00
0000
0C00
3380
4180
8080
8080
8080
8080
8080
4180
2180
1E80
0080
0080
0100
0E00
ENDCHAR
STARTCHAR 0120
ENCODING 288
SWIDTH 668 0
DWIDTH 13 0
BBX 12 17 1 0
BITMAP
0600
0000
0000
0F00
30C0
4020
4020
8000
8000
8000
83F0
8010
8010
4010
4030
2050
1F90
ENDCHAR
STARTCHAR 0121
ENCODING 289
SWIDTH 617 0
DWIDTH 12 0
BBX 9 18 1 -4
BITMAP
0800
0800
0000
0C00
3380
4180
8080
8080
8080
8080
8080
4180
2180
1E80
0080
0080
0100
0E00
ENDCHAR
STARTCHAR 0126
ENCODING 294
SWIDTH 668 0
DWIDTH 13 0
BBX 12 14 1 0
BITMAP
4020
4020
4020
FFF0
4020
4020
4020
7FE0
4020
4020
4020
4020
4020
4020
ENDCHAR
STARTCHAR 0127
ENCODING 295
SWIDTH 565 0
DWIDTH 11 0
BBX 11 14 0 1
BITMAP
4000
FC00
4000
4200
4DC0
5040
2040
2040
4020
4020
4020
4020
4020
4020
ENDCHAR
STARTCHAR 0128
ENCODING 296
SWIDTH 205 0
DWIDTH 4 0
BBX 4 17 0 0
BITMAP
D0
20
00
00
40
40
40
40
40
40
40
40
40
40
40
40
40
ENDCHAR
STARTCHAR 0129
ENCODING 297
SWIDTH 205 0
DWIDTH 4 0
BBX 5 14 0 0
BITMAP
C8
30
00
00
40
40
40
40
40
40
40
40
40
40
ENDCHAR
STARTCHAR 012A
ENCODING 298
SWIDTH 205 0
DWIDTH 4 0
BBX 4 16 0 0
BITMAP
F0
00
00
40
40
40
40
40
40
40
40
40
40
40
40
40
ENDCHAR
STARTCHAR 012B
ENCODING 299
SWIDTH 205 0
DWIDTH 4 0
BBX 6 13 -1 0
BITMAP
FC
00
00
20
20
20
20
20
20
20
20
20
20
ENDCHAR
STARTCHAR 012E
ENCODING 302
SWIDTH 205 0
DWIDTH 4 0
BBX 2 16 1 -2
BITMAP
80
80
80
80
80
80
80
80
80
80
80
80
80
80
80
C0
ENDCHAR
STARTCHAR 012F
ENCODING 303
SWIDTH 205 0
DWIDTH 4 0
BBX 2 16 1 -2
BITMAP
40
00
00
80
80
80
80
80
80
80
80
80
80
80
80
C0
ENDCHAR
STARTCHAR 0130
ENCODING 304
SWIDTH 205 0
DWIDTH 4 0
BBX 2 17 1 0
BITMAP
C0
00
00
00
80
80
80
80
80
80
80
80
80
80
80
80
80
ENDCHAR
STARTCHAR 0131
ENCODING 305
SWIDTH 205 0
DWIDTH 4 0
BBX 1 10 2 0
BITMAP
80
80
80
80
80
80
80
80
80
80
ENDCHAR
STARTCHAR 0139
ENCODING 313
SWIDTH 514 0
DWIDTH 10 0
BBX 7 18 2 0
BITMAP
40
40
80
00
00
80
80
80
80
80
80
80
80
80
80
80
80
FE
ENDCHAR
STARTCHAR 013A
ENCODING 314
SWIDTH 257 0
DWIDTH 5 0
BBX 3 19 2 0
BITMAP
40
40
80
00
00
80
80
80
80
80
80
80
80
80
80
80
80
80
E0
ENDCHAR
STARTCHAR 013D
ENCODING 317
SWIDTH 514 0
DWIDTH 10 0
BBX 10 18 -1 0
BITMAP
8400
4800
3000
0000
0000
2000
2000
2000
2000
2000
2000
2000
2000
2000
2000
2000
2000
1FC0
ENDCHAR
STARTCHAR 013E
ENCODING 318
SWIDTH 257 0
DWIDTH 5 0
BBX 3 15 2 0
BITMAP
20
A0
A0
A0
80
80
80
80
80
80
80
80
80
80
E0
ENDCHAR
STARTCHAR 0143
ENCODING 323
SWIDTH 720 0
DWIDTH 14 0
BBX 10 18 2 0
BITMAP
0200
0400
0400
0000
8000
8040
C040
A040
A040
9040
8840
8440
8440
8240
8140
80C0
80C0
8040
ENDCHAR
STARTCHAR 0144
ENCODING 324
SWIDTH 617 0
DWIDTH 12 0
BBX 9 14 2 1
BITMAP
0400
0800
0000
0800
B600
C100
8100
8100
8080
8080
8080
8080
8080
8080
ENDCHAR
STARTCHAR 0147
ENCODING 327
SWIDTH 720 0
DWIDTH 14 0
BBX 10 18 2 0
BITMAP
2100
1200
0C00
0000
8000
8040
C040
A040
A040
9040
8840
8440
8440
8240
8140
80C0
80C0
8040
ENDCHAR
STARTCHAR 0148
ENCODING 328
SWIDTH 617 0
DWIDTH 12 0
BBX 9 14 2 0
BITMAP
2400
1800
0000
0800
B600
C100
8100
8100
8080
8080
8080
8080
8080
8080
ENDCHAR
STARTCHAR 014C
ENCODING 332
SWIDTH 720 0
DWIDTH 14 0
BBX 12 16 1 0
BITMAP
0F00
0000
0F80
3040
4020
4010
8010
8010
8010
8010
8010
8010
4010
4020
2040
1F80
ENDCHAR
STARTCHAR 014D
ENCODING 333
SWIDTH 565 0
DWIDTH 11 0
BBX 10 13 1 0
BITMAP
3F00
0000
0000
3700
4080
8080
8080
8040
8080
8080
4080
4100
3E00
ENDCHAR
STARTCHAR 0152
ENCODING 338
SWIDTH 925 0
DWIDTH 18 0
BBX 16 14 1 0
BITMAP
07FF
3880
4080
4080
8080
8080
8080
80FE
8080
8080
8080
4080
2080
1FFF
ENDCHAR
STARTCHAR 0153
ENCODING 339
SWIDTH 1028 0
DWIDTH 20 0
BBX 18 11 1 0
BITMAP
000400
371B00
40A080
80C040
804040
807FC0
804000
804000
40C040
412080
3E1F00
ENDCHAR
STARTCHAR 0154
ENCODING 340
SWIDTH 565 0
DWIDTH 11 0
BBX 9 18 2 0
BITMAP
0400
0800
1000
0000
F800
8600
8100
8100
8080
8100
8100
FE00
8800
8800
8400
8200
8200
8100
ENDCHAR
STARTCHAR 0155
ENCODING 341
SWIDTH 308 0
DWIDTH 6 0
BBX 4 15 2 0
BITMAP
20
20
40
00
00
F0
80
80
80
80
80
80
80
80
80
ENDCHAR
STARTCHAR 0158
ENCODING 344
SWIDTH 565 0
DWIDTH 11 0
BBX 9 18 2 0
BITMAP
4400
4800
3000
0000
F800
8600
8100
8100
8080
8100
8100
FE00
8800
8800
8400
8200
8200
8100
ENDCHAR
STARTCHAR 0159
ENCODING 345
SWIDTH 308 0
DWIDTH 6 0
BBX 5 14 1 0
BITMAP
90
60
00
00
B8
40
80
80
80
80
80
80
80
80
ENDCHAR
STARTCHAR 015A
ENCODING 346
SWIDTH 565 0
DWIDTH 11 0
BBX 9 18 1 0
BITMAP
0200
0400
0400
0000
1E00
6100
4080
8080
8000
4000
3000
0F00
0080
0080
8080
8080
4080
3F00
ENDCHAR
STARTCHAR 015B
ENCODING 347
SWIDTH 462 0
DWIDTH 9 0
BBX 8 15 1 0
BITMAP
04
04
08
00
10
6E
82
80
C0
38
06
01
81
42
3C
ENDCHAR
STARTCHAR 015E
ENCODING 350
SWIDTH 565 0
DWIDTH 11 0
BBX 9 19 1 -5
BITMAP
1E00
6100
4080
8080
8000
4000
3000
0F00
0080
0080
8080
8080
4080
3F00
0800
0C00
0200
0200
0C00
ENDCHAR
STARTCHAR 015F
ENCODING 351
SWIDTH 462 0
DWIDTH 9 0
BBX 8 16 1 -5
BITMAP
10
6E
82
80
C0
38
06
01
81
42
3C
10
18
04
04
1C
ENDCHAR
STARTCHAR 0160
ENCODING 352
SWIDTH 565 0
DWIDTH 11 0
BBX 9 18 1 0
BITMAP
2100
1200
0C00
0000
1E00
6100
4080
8080
8000
4000
3000
0F00
0080
0080
8080
8080
4080
3F00
ENDCHAR
STARTCHAR 0161
ENCODING 353
SWIDTH 462 0
DWIDTH 9 0
BBX 8 14 1 0
BITMAP
24
28
10
10
6E
82
80
C0
38
06
01
81
42
3C
ENDCHAR
STARTCHAR 0162
ENCODING 354
SWIDTH 565 0
DWIDTH 11 0
BBX 9 19 1 -5
BITMAP
FF80
0800
0800
0800
0800
0800
0800
0800
0800
0800
0800
0800
0800
0800
0800
0C00
0200
0200
0C00
ENDCHAR
STARTCHAR 0163
ENCODING 355
SWIDTH 360 0
DWIDTH 7 0
BBX 6 18 1 -4
BITMAP
40
40
40
F8
40
40
40
40
40
40
40
40
28
30
38
04
04
18
ENDCHAR
STARTCHAR 0164
ENCODING 356
SWIDTH 565 0
DWIDTH 11 0
BBX 9 18 1 0
BITMAP
2000
1200
0C00
0000
FF80
0800
0800
0800
0800
0800
0800
0800
0800
0800
0800
0800
0800
0800
ENDCHAR
STARTCHAR 0165
ENCODING 357
SWIDTH 411 0
DWIDTH 8 0
BBX 7 15 1 0
BITMAP
02
06
42
42
40
F8
40
40
40
40
40
40
40
40
38
ENDCHAR
STARTCHAR 0166
ENCODING 358
SWIDTH 565 0
DWIDTH 11 0
BBX 9 14 1 0
BITMAP
FF80
0800
0800
0800
0800
0800
7F00
0800
0800
0800
0800
0800
0800
0800
ENDCHAR
STARTCHAR 0167
ENCODING 359
SWIDTH 360 0
DWIDTH 7 0
BBX 5 13 1 1
BITMAP
40
40
40
F8
40
40
40
F8
40
40
40
20
38
ENDCHAR
STARTCHAR 0168
ENCODING 360
SWIDTH 668 0
DWIDTH 13 0
BBX 11 17 1 0
BITMAP
1D00
0200
0000
8020
8020
8020
8020
8020
8020
8020
8020
8020
8020
8040
4040
4040
3F80
ENDCHAR
STARTCHAR 0169
ENCODING 361
SWIDTH 565 0
DWIDTH 11 0
BBX 8 14 2 0
BITMAP
34
4C
00
00
81
81
81
81
81
81
81
81
43
3D
ENDCHAR
STARTCHAR 016A
ENCODING 362
SWIDTH 668 0
DWIDTH 13 0
BBX 11 16 1 0
BITMAP
1F00
0000
8020
8020
8020
8020
8020
8020
8020
8020
8020
8020
8040
4040
4040
3F80
ENDCHAR
STARTCHAR 016B
ENCODING 363
SWIDTH 565 0
DWIDTH 11 0
BBX 8 13 2 0
BITMAP
7C
00
00
81
81
81
81
81
81
81
81
43
3D
ENDCHAR
STARTCHAR 016E
ENCODING 366
SWIDTH 668 0
DWIDTH 13 0
BBX 11 18 1 0
BITMAP
0E00
0A00
0400
0000
8020
8020
8020
8020
8020
8020
8020
8020
8020
8020
8040
4040
4040
3F80
ENDCHAR
STARTCHAR 016F
ENCODING 367
SWIDTH 565 0
DWIDTH 11 0
BBX 8 15 2 0
BITMAP
38
28
18
00
00
81
81
81
81
81
81
81
81
43
3D
ENDCHAR
STARTCHAR 0172
ENCODING 370
SWIDTH 668 0
DWIDTH 13 0
BBX 11 17 1 -3
BITMAP
8020
8020
8020
8020
8020
8020
8020
8020
8020
8020
8040
4040
4040
3B80
0400
0800
0600
ENDCHAR
STARTCHAR 0173
ENCODING 371
SWIDTH 565 0
DWIDTH 11 0
BBX 9 13 2 -3
BITMAP
8100
8100
8100
8100
8100
8100
8100
8100
4300
3D00
0200
0200
0380
ENDCHAR
STARTCHAR 0174
ENCODING 372
SWIDTH 977 0
DWIDTH 19 0
BBX 19 18 0 0
BITMAP
004000
00A000
011000
000000
804020
804020
40A040
40A040
40A040
411080
211080
211080
220880
120900
120900
140500
140600
0C0600
ENDCHAR
STARTCHAR 0175
ENCODING 373
SWIDTH 771 0
DWIDTH 15 0
BBX 14 14 1 0
BITMAP
0300
0480
0000
0000
8204
8308
8508
4508
4488
4890
2890
2850
3060
1020
ENDCHAR
STARTCHAR 0176
ENCODING 374
SWIDTH 565 0
DWIDTH 11 0
BBX 9 18 1 0
BITMAP
0800
1400
2200
0000
8080
8080
4100
4100
2200
2200
1400
1400
0800
0800
0800
0800
0800
0800
ENDCHAR
STARTCHAR 0177
ENCODING 375
SWIDTH 514 0
DWIDTH 10 0
BBX 8 18 1 -4
BITMAP
18
24
00
00
81
81
42
42
44
24
24
18
18
10
10
20
20
C0
ENDCHAR
STARTCHAR 0178
ENCODING 376
SWIDTH 565 0
DWIDTH 11 0
BBX 9 17 1 0
BITMAP
1600
0000
0000
8080
8080
4100
4100
2200
2200
1400
1400
0800
0800
0800
0800
0800
0800
ENDCHAR
STARTCHAR 0179
ENCODING 377
SWIDTH 565 0
DWIDTH 11 0
BBX 9 18 1 0
BITMAP
0200
0400
0400
0000
FF80
0080
0100
0100
0200
0400
0400
0800
1000
1000
2000
4000
4000
FF80
ENDCHAR
STARTCHAR 017A
ENCODING 378
SWIDTH 462 0
DWIDTH 9 0
BBX 8 14 1 1
BITMAP
04
08
00
00
7F
02
04
08
08
10
20
40
40
FF
ENDCHAR
STARTCHAR 017B
ENCODING 379
SWIDTH 565 0
DWIDTH 11 0
BBX 9 17 1 0
BITMAP
0C00
0000
0000
FF80
0080
0100
0100
0200
0400
0400
0800
1000
1000
2000
4000
4000
FF80
ENDCHAR
STARTCHAR 017C
ENCODING 380
SWIDTH 462 0
DWIDTH 9 0
BBX 8 13 1 1
BITMAP
10
00
00
7F
02
04
08
08
10
20
40
40
FF
ENDCHAR
STARTCHAR 017D
ENCODING 381
SWIDTH 565 0
DWIDTH 11 0
BBX 9 18 1 0
BITMAP
2100
1200
0C00
0000
FF80
0080
0100
0100
0200
0400
0400
0800
1000
1000
2000
4000
4000
FF80
ENDCHAR
STARTCHAR 017E
ENCODING 382
SWIDTH 462 0
DWIDTH 9 0
BBX 8 14 1 0
BITMAP
24
18
00
00
7F
02
04
08
08
10
20
40
40
FF
ENDCHAR
STARTCHAR 01A0
ENCODING 416
SWIDTH 720 0
DWIDTH 14 0
BBX 12 15 1 0
BITMAP
0020
0FC0
3040
4020
4010
8010
8010
8010
8010
8010
8010
4010
4020
2040
1F80
ENDCHAR
STARTCHAR 01A1
ENCODING 417
SWIDTH 565 0
DWIDTH 11 0
BBX 10 12 1 0
BITMAP
0080
0080
3700
4080
8080
8080
8040
8080
8080
4080
4100
3E00
ENDCHAR
STARTCHAR 01AF
ENCODING 431
SWIDTH 668 0
DWIDTH 13 0
BBX 13 15 1 0
BITMAP
0008
8030
8020
8020
8020
8020
8020
8020
8020
8020
8020
8040
4040
4040
3F80
ENDCHAR
STARTCHAR 01B0
ENCODING 432
SWIDTH 617 0
DWIDTH 12 0
BBX 10 11 2 1
BITMAP
0040
8180
8100
8100
8100
8100
8100
8100
8100
4300
3D00
ENDCHAR
STARTCHAR 02C6
ENCODING 710
SWIDTH 360 0
DWIDTH 7 0
BBX 5 2 1 12
BITMAP
70
C8
ENDCHAR
STARTCHAR 02C7
ENCODING 711
SWIDTH 308 0
DWIDTH 6 0
BBX 5 2 1 12
BITMAP
88
70
ENDCHAR
STARTCHAR 02D8
ENCODING 728
SWIDTH 360 0
DWIDTH 7 0
BBX 5 1 1 13
BITMAP
F8
ENDCHAR
STARTCHAR 02D9
ENCODING 729
SWIDTH 102 0
DWIDTH 2 0
BBX 1 2 1 12
BITMAP
80
80
ENDCHAR
STARTCHAR 02DA
ENCODING 730
SWIDTH 205 0
DWIDTH 4 0
BBX 3 3 1 12
BITMAP
C0
A0
C0
ENDCHAR
STARTCHAR 02DB
ENCODING 731
SWIDTH 154 0
DWIDTH 3 0
BBX 2 3 1 -3
BITMAP
80
80
C0
ENDCHAR
STARTCHAR 02DC
ENCODING 732
SWIDTH 360 0
DWIDTH 7 0
BBX 5 2 1 12
BITMAP
68
98
ENDCHAR
STARTCHAR 0300
ENCODING 768
SWIDTH 0 0
DWIDTH 0 0
BBX 3 3 -4 12
BITMAP
80
40
20
ENDCHAR
STARTCHAR 0301
ENCODING 769
SWIDTH 0 0
DWIDTH 0 0
BBX 2 3 -3 12
BITMAP
40
80
80
ENDCHAR
STARTCHAR 0302
ENCODING 770
SWIDTH 0 0
DWIDTH 0 0
BBX 5 2 -6 12
BITMAP
60
98
ENDCHAR
STARTCHAR 0303
ENCODING 771
SWIDTH 0 0
DWIDTH 0 0
BBX 4 2 -5 12
BITMAP
C0
30
ENDCHAR
STARTCHAR 0304
ENCODING 772
SWIDTH 0 0
DWIDTH 0 0
BBX 5 1 -6 12
BITMAP
F8
ENDCHAR
STARTCHAR 0306
ENCODING 774
SWIDTH 0 0
DWIDTH 0 0
BBX 6 2 -7 12
BITMAP
84
78
ENDCHAR
STARTCHAR 0307
ENCODING 775
SWIDTH 0 0
DWIDTH 0 0
BBX 1 2 -3 12
BITMAP
80
80
ENDCHAR
STARTCHAR 0308
ENCODING 776
SWIDTH 0 0
DWIDTH 0 0
BBX 3 2 -5 12
BITMAP
A0
A0
ENDCHAR
STARTCHAR 0309
ENCODING 777
SWIDTH 0 0
DWIDTH 0 0
BBX 3 2 -4 12
BITMAP
E0
20
ENDCHAR
STARTCHAR 030A
ENCODING 778
SWIDTH 0 0
DWIDTH 0 0
BBX 3 3 -4 12
BITMAP
E0
A0
60
ENDCHAR
STARTCHAR 030C
ENCODING 780
SWIDTH 0 0
DWIDTH 0 0
BBX 5 2 -6 12
BITMAP
88
70
ENDCHAR
STARTCHAR 031B
ENCODING 795
SWIDTH 0 0
DWIDTH 0 0
BBX 2 2 -3 10
BITMAP
40
C0
ENDCHAR
STARTCHAR 0323
ENCODING 803
SWIDTH 0 0
DWIDTH 0 0
BBX 1 1 -2 -3
BITMAP
80
ENDCHAR
STARTCHAR 0327
ENCODING 807
SWIDTH 0 0
DWIDTH 0 0
BBX 3 5 -4 -5
BITMAP
80
C0
20
20
E0
ENDCHAR
STARTCHAR 0328
ENCODING 808
SWIDTH 0 0
DWIDTH 0 0
BBX 2 3 -3 -3
BITMAP
80
80
C0
ENDCHAR
STARTCHAR 1E80
ENCODING 7808
SWIDTH 977 0
DWIDTH 19 0
BBX 19 18 0 0
BITMAP
010000
008000
008000
000000
804020
804020
40A040
40A040
40A040
411080
211080
211080
220880
120900
120900
140500
140600
0C0600
ENDCHAR
STARTCHAR 1E81
ENCODING 7809
SWIDTH 771 0
DWIDTH 15 0
BBX 14 15 1 0
BITMAP
0800
0400
0200
0000
0000
8204
8308
8508
4508
4488
4890
2890
2850
3060
1020
ENDCHAR
STARTCHAR 1E82
ENCODING 7810
SWIDTH 977 0
DWIDTH 19 0
BBX 19 18 0 0
BITMAP
001000
002000
004000
000000
804020
804020
40A040
40A040
40A040
411080
211080
211080
220880
120900
120900
140500
140600
0C0600
ENDCHAR
STARTCHAR 1E83
ENCODING 7811
SWIDTH 771 0
DWIDTH 15 0
BBX 14 15 1 0
BITMAP
0080
0080
0100
0000
0000
8204
8308
8508
4508
4488
4890
2890
2850
3060
1020
ENDCHAR
STARTCHAR 1E84
ENCODING 7812
SWIDTH 977 0
DWIDTH 19 0
BBX 19 17 0 0
BITMAP
00B000
000000
000000
804020
804020
40A040
40A040
40A040
411080
211080
211080
220880
120900
120900
140500
140600
0C0600
ENDCHAR
STARTCHAR 1E85
ENCODING 7813
SWIDTH 771 0
DWIDTH 15 0
BBX 14 14 1 0
BITMAP
0480
0480
0000
0000
8204
8308
8508
4508
4488
4890
2890
2850
3060
1020
ENDCHAR
STARTCHAR 1EA0
ENCODING 7840
SWIDTH 668 0
DWIDTH 13 0
BBX 11 18 1 -4
BITMAP
0400
0400
0A00
0A00
1100
1100
1100
2080
2080
5F40
4040
4040
8020
8020
0000
0000
0400
0400
ENDCHAR
STARTCHAR 1EA1
ENCODING 7841
SWIDTH 617 0
DWIDTH 12 0
BBX 9 15 1 -4
BITMAP
0800
3680
4180
8080
8080
8080
8080
8080
8080
4180
3E80
0000
0000
0000
0C00
ENDCHAR
STARTCHAR 1EA2
ENCODING 7842
SWIDTH 668 0
DWIDTH 13 0
BBX 11 18 1 0
BITMAP
0E00
0200
0200
0000
0400
0400
0A00
0A00
1100
1100
1100
2080
2080
5F40
4040
4040
8020
8020
ENDCHAR
STARTCHAR 1EA3
ENCODING 7843
SWIDTH 617 0
DWIDTH 12 0
BBX 9 15 1 0
BITMAP
0C00
1200
0400
0000
0800
3680
4180
8080
8080
8080
8080
8080
8080
4180
3E80
ENDCHAR
STARTCHAR 1EA4
ENCODING 7844
SWIDTH 668 0
DWIDTH 13 0
BBX 11 20 1 0
BITMAP
0040
0080
0400
0A00
1100
0000
0400
0400
0A00
0A00
1100
1100
1100
2080
2080
5F40
4040
4040
8020
8020
ENDCHAR
STARTCHAR 1EA5
ENCODING 7845
SWIDTH 617 0
DWIDTH 12 0
BBX 9 17 1 0
BITMAP
0080
0080
0100
0C00
1200
0000
0800
3680
4180
8080
8080
8080
8080
8080
8080
4180
3E80
ENDCHAR
STARTCHAR 1EA6
ENCODING 7846
SWIDTH 668 0
DWIDTH 13 0
BBX 11 20 1 0
BITMAP
0200
0200
0500
0A00
1100
0000
0400
0400
0A00
0A00
1100
1100
1100
2080
2080
5F40
4040
4040
8020
8020
ENDCHAR
STARTCHAR 1EA7
ENCODING 7847
SWIDTH 617 0
DWIDTH 12 0
BBX 9 17 1 0
BITMAP
0400
0200
0200
0C00
1200
0000
0800
3680
4180
8080
8080
8080
8080
8080
8080
4180
3E80
ENDCHAR
STARTCHAR 1EA8
ENCODING 7848
SWIDTH 668 0
DWIDTH 13 0
BBX 11 20 1 0
BITMAP
03C0
0080
0400
0A00
1100
0000
0400
0400
0A00
0A00
1100
1100
1100
2080
2080
5F40
4040
4040
8020
8020
ENDCHAR
STARTCHAR 1EA9
ENCODING 7849
SWIDTH 617 0
DWIDTH 12 0
BBX 9 17 1 0
BITMAP
0380
0080
0100
0C00
1200
0000
0800
3680
4180
8080
8080
8080
8080
8080
8080
4180
3E80
ENDCHAR
STARTCHAR 1EAA
ENCODING 7850
SWIDTH 668 0
DWIDTH 13 0
BBX 11 20 1 0
BITMAP
0D00
1300
0400
0A00
1100
0000
0400
0400
0A00
0A00
1100
1100
1100
2080
2080
5F40
4040
4040
8020
8020
ENDCHAR
STARTCHAR 1EAB
ENCODING 7851
SWIDTH 617 0
DWIDTH 12 0
BBX 9 16 1 1
BITMAP
3E00
0000
0C00
1200
0000
0800
3680
4180
8080
8080
8080
8080
8080
8080
4180
3E80
ENDCHAR
STARTCHAR 1EAC
ENCODING 7852
SWIDTH 668 0
DWIDTH 13 0
BBX 11 22 1 -4
BITMAP
0400
0A00
1100
0000
0400
0400
0A00
0A00
1100
1100
1100
2080
2080
5F40
4040
4040
8020
8020
0000
0000
0400
0400
ENDCHAR
STARTCHAR 1EAD
ENCODING 7853
SWIDTH 617 0
DWIDTH 12 0
BBX 9 18 1 -4
BITMAP
0C00
1200
0000
0800
3680
4180
8080
8080
8080
8080
8080
8080
4180
3E80
0000
0000
0000
0C00
ENDCHAR
STARTCHAR 1EAE
ENCODING 7854
SWIDTH 668 0
DWIDTH 13 0
BBX 11 20 1 0
BITMAP
0100
0200
0000
1100
0E00
0000
0400
0400
0A00
0A00
1100
1100
1100
2080
2080
5F40
4040
4040
8020
8020
ENDCHAR
STARTCHAR 1EAF
ENCODING 7855
SWIDTH 617 0
DWIDTH 12 0
BBX 9 17 1 0
BITMAP
0200
0400
0400
2100
1E00
0000
0800
3680
4180
8080
8080
8080
8080
8080
8080
4180
3E80
ENDCHAR
STARTCHAR 1EB0
ENCODING 7856
SWIDTH 668 0
DWIDTH 13 0
BBX 11 20 1 0
BITMAP
0800
0800
0400
1100
0E00
0000
0400
0400
0A00
0A00
1100
1100
1100
2080
2080
5F40
4040
4040
8020
8020
ENDCHAR
STARTCHAR 1EB1
ENCODING 7857
SWIDTH 617 0
DWIDTH 12 0
BBX 9 17 1 0
BITMAP
1000
1000
0800
2100
1E00
0000
0800
3680
4180
8080
8080
8080
8080
8080
8080
4180
3E80
ENDCHAR
STARTCHAR 1EB2
ENCODING 7858
SWIDTH 668 0
DWIDTH 13 0
BBX 11 20 1 0
BITMAP
0E00
0200
0000
1100
0E00
0000
0400
0400
0A00
0A00
1100
1100
1100
2080
2080
5F40
4040
4040
8020
8020
ENDCHAR
STARTCHAR 1EB3
ENCODING 7859
SWIDTH 617 0
DWIDTH 12 0
BBX 9 17 1 0
BITMAP
0C00
0200
0400
2100
1E00
0000
0800
3680
4180
8080
8080
8080
8080
8080
8080
4180
3E80
ENDCHAR
STARTCHAR 1EB4
ENCODING 7860
SWIDTH 668 0
DWIDTH 13 0
BBX 11 20 1 0
BITMAP
0900
1500
0200
1100
0E00
0000
0400
0400
0A00
0A00
1100
1100
1100
2080
2080
5F40
4040
4040
8020
8020
ENDCHAR
STARTCHAR 1EB5
ENCODING 7861
SWIDTH 617 0
DWIDTH 12 0
BBX 9 16 1 0
BITMAP
3A00
2400
2100
1E00
0000
0800
3680
4180
8080
8080
8080
8080
8080
8080
4180
3E80
ENDCHAR
STARTCHAR 1EB6
ENCODING 7862
SWIDTH 668 0
DWIDTH 13 0
BBX 11 21 1 -4
BITMAP
1100
0E00
0000
0400
0400
0A00
0A00
1100
1100
1100
2080
2080
5F40
4040
4040
8020
8020
0000
0000
0400
0400
ENDCHAR
STARTCHAR 1EB7
ENCODING 7863
SWIDTH 617 0
DWIDTH 12 0
BBX 9 18 1 -4
BITMAP
2100
1E00
0000
0800
3680
4180
8080
8080
8080
8080
8080
8080
4180
3E80
0000
0000
0000
0C00
ENDCHAR
STARTCHAR 1EB8
ENCODING 7864
SWIDTH 565 0
DWIDTH 11 0
BBX 8 18 2 -4
BITMAP
FF
80
80
80
80
80
80
FC
80
80
80
80
80
FF
00
00
00
10
ENDCHAR
STARTCHAR 1EB9
ENCODING 7865
SWIDTH 565 0
DWIDTH 11 0
BBX 9 15 1 -4
BITMAP
0800
3700
4080
8080
8080
FF80
8000
8000
4080
4100
3E00
0000
0000
0000
0C00
ENDCHAR
STARTCHAR 1EBA
ENCODING 7866
SWIDTH 565 0
DWIDTH 11 0
BBX 8 18 2 0
BITMAP
38
08
08
00
FF
80
80
80
80
80
80
FC
80
80
80
80
80
FF
ENDCHAR
STARTCHAR 1EBB
ENCODING 7867
SWIDTH 565 0
DWIDTH 11 0
BBX 9 15 1 0
BITMAP
0C00
1200
0400
0000
0800
3700
4080
8080
8080
FF80
8000
8000
4080
4100
3E00
ENDCHAR
STARTCHAR 1EBC
ENCODING 7868
SWIDTH 565 0
DWIDTH 11 0
BBX 8 17 2 0
BITMAP
74
08
00
FF
80
80
80
80
80
80
FC
80
80
80
80
80
FF
ENDCHAR
STARTCHAR 1EBD
ENCODING 7869
SWIDTH 565 0
DWIDTH 11 0
BBX 9 14 1 0
BITMAP
1800
2600
0000
0800
3700
4080
8080
8080
FF80
8000
8000
4080
4100
3E00
ENDCHAR
STARTCHAR 1EBE
ENCODING 7870
SWIDTH 565 0
DWIDTH 11 0
BBX 8 20 2 0
BITMAP
01
02
10
28
44
00
FF
80
80
80
80
80
80
FC
80
80
80
80
80
FF
ENDCHAR
STARTCHAR 1EBF
ENCODING 7871
SWIDTH 565 0
DWIDTH 11 0
BBX 9 17 1 0
BITMAP
0080
0080
0100
0C00
1200
0000
0800
3700
4080
8080
8080
FF80
8000
8000
4080
4100
3E00
ENDCHAR
STARTCHAR 1EC0
ENCODING 7872
SWIDTH 565 0
DWIDTH 11 0
BBX 8 20 2 0
BITMAP
08
04
10
28
44
00
FF
80
80
80
80
80
80
FC
80
80
80
80
80
FF
ENDCHAR
STARTCHAR 1EC1
ENCODING 7873
SWIDTH 565 0
DWIDTH 11 0
BBX 9 17 1 0
BITMAP
0400
0400
0200
0C00
1200
0000
0800
3700
4080
8080
8080
FF80
8000
8000
4080
4100
3E00
ENDCHAR
STARTCHAR 1EC2
ENCODING 7874
SWIDTH 565 0
DWIDTH 11 0
BBX 8 20 2 0
BITMAP
0F
01
12
28
44
00
FF
80
80
80
80
80
80
FC
80
80
80
80
80
FF
ENDCHAR
STARTCHAR 1EC3
ENCODING 7875
SWIDTH 565 0
DWIDTH 11 0
BBX 9 17 1 0
BITMAP
0380
0080
0100
0C00
1200
0000
0800
3700
4080
8080
8080
FF80
8000
8000
4080
4100
3E00
ENDCHAR
STARTCHAR 1EC4
ENCODING 7876
SWIDTH 565 0
DWIDTH 11 0
BBX 8 20 2 0
BITMAP
30
4C
10
28
44
00
FF
80
80
80
80
80
80
FC
80
80
80
80
80
FF
ENDCHAR
STARTCHAR 1EC5
ENCODING 7877
SWIDTH 565 0
DWIDTH 11 0
BBX 9 16 1 1
BITMAP
3E00
0000
0C00
1200
0000
0800
3700
4080
8080
8080
FF80
8000
8000
4080
4100
3E00
ENDCHAR
STARTCHAR 1EC6
ENCODING 7878
SWIDTH 565 0
DWIDTH 11 0
BBX 8 22 2 -4
BITMAP
10
28
44
00
FF
80
80
80
80
80
80
FC
80
80
80
80
80
FF
00
00
00
10
ENDCHAR
STARTCHAR 1EC7
ENCODING 7879
SWIDTH 565 0
DWIDTH 11 0
BBX 9 18 1 -4
BITMAP
0C00
1200
0000
0800
3700
4080
8080
8080
FF80
8000
8000
4080
4100
3E00
0000
0000
0000
0C00
ENDCHAR
STARTCHAR 1EC8
ENCODING 7880
SWIDTH 205 0
DWIDTH 4 0
BBX 3 18 1 0
BITMAP
E0
20
40
00
00
80
80
80
80
80
80
80
80
80
80
80
80
80
ENDCHAR
STARTCHAR 1EC9
ENCODING 7881
SWIDTH 205 0
DWIDTH 4 0
BBX 4 15 0 0
BITMAP
60
90
20
20
00
40
40
40
40
40
40
40
40
40
40
ENDCHAR
STARTCHAR 1ECA
ENCODING 7882
SWIDTH 205 0
DWIDTH 4 0
BBX 2 17 1 -3
BITMAP
80
80
80
80
80
80
80
80
80
80
80
80
80
00
00
00
C0
ENDCHAR
STARTCHAR 1ECB
ENCODING 7883
SWIDTH 205 0
DWIDTH 4 0
BBX 2 17 1 -3
BITMAP
40
00
00
80
80
80
80
80
80
80
80
80
80
00
00
00
C0
ENDCHAR
STARTCHAR 1ECC
ENCODING 7884
SWIDTH 720 0
DWIDTH 14 0
BBX 12 18 1 -4
BITMAP
0F80
3040
4020
4010
8010
8010
8010
8010
8010
8010
4010
4020
2040
1F80
0000
0000
0000
0200
ENDCHAR
STARTCHAR 1ECD
ENCODING 7885
SWIDTH 565 0
DWIDTH 11 0
BBX 10 14 1 -3
BITMAP
3700
4080
8080
8080
8040
8080
8080
4080
4100
3E00
0000
0000
0000
0C00
ENDCHAR
STARTCHAR 1ECE
ENCODING 7886
SWIDTH 720 0
DWIDTH 14 0
BBX 12 18 1 0
BITMAP
0700
0100
0200
0000
0F80
3040
4020
4010
8010
8010
8010
8010
8010
8010
4010
4020
2040
1F80
ENDCHAR
STARTCHAR 1ECF
ENCODING 7887
SWIDTH 565 0
DWIDTH 11 0
BBX 10 15 1 0
BITMAP
0C00
1200
0400
0000
0000
3700
4080
8080
8080
8040
8080
8080
4080
4100
3E00
ENDCHAR
STARTCHAR 1ED0
ENCODING 7888
SWIDTH 720 0
DWIDTH 14 0
BBX 12 20 1 0
BITMAP
0060
0040
0280
0500
0880
0000
0F80
3040
4020
4010
8010
8010
8010
8010
8010
8010
4010
4020
2040
1F80
ENDCHAR
STARTCHAR 1ED1
ENCODING 7889
SWIDTH 565 0
DWIDTH 11 0
BBX 10 17 1 0
BITMAP
0080
0080
0100
0C00
1200
0000
0000
3700
4080
8080
8080
8040
8080
8080
4080
4100
3E00
ENDCHAR
STARTCHAR 1ED2
ENCODING 7890
SWIDTH 720 0
DWIDTH 14 0
BBX 12 20 1 0
BITMAP
0100
0100
0280
0500
0880
0000
0F80
3040
4020
4010
8010
8010
8010
8010
8010
8010
4010
4020
2040
1F80
ENDCHAR
STARTCHAR 1ED3
ENCODING 7891
SWIDTH 565 0
DWIDTH 11 0
BBX 10 17 1 0
BITMAP
0400
0400
0200
0C00
1200
0000
0000
3700
4080
8080
8080
8040
8080
8080
4080
4100
3E00
ENDCHAR
STARTCHAR 1ED4
ENCODING 7892
SWIDTH 720 0
DWIDTH 14 0
BBX 12 20 1 0
BITMAP
01C0
0040
0280
0500
0880
0000
0F80
3040
4020
4010
8010
8010
8010
8010
8010
8010
4010
4020
2040
1F80
ENDCHAR
STARTCHAR 1ED5
ENCODING 7893
SWIDTH 565 0
DWIDTH 11 0
BBX 10 17 1 0
BITMAP
0380
0080
0100
0C00
1200
0000
0000
3700
4080
8080
8080
8040
8080
8080
4080
4100
3E00
ENDCHAR
STARTCHAR 1ED6
ENCODING 7894
SWIDTH 720 0
DWIDTH 14 0
BBX 12 20 1 0
BITMAP
0C80
0B00
0200
0500
0880
0000
0F80
3040
4020
4010
8010
8010
8010
8010
8010
8010
4010
4020
2040
1F80
ENDCHAR
STARTCHAR 1ED7
ENCODING 7895
SWIDTH 565 0
DWIDTH 11 0
BBX 10 16 1 1
BITMAP
3E00
0000
0C00
1200
0000
0000
3700
4080
8080
8080
8040
8080
8080
4080
4100
3E00
ENDCHAR
STARTCHAR 1ED8
ENCODING 7896
SWIDTH 720 0
DWIDTH 14 0
BBX 12 22 1 -4
BITMAP
0200
0500
0880
0000
0F80
3040
4020
4010
8010
8010
8010
8010
8010
8010
4010
4020
2040
1F80
0000
0000
0000
0200
ENDCHAR
STARTCHAR 1ED9
ENCODING 7897
SWIDTH 565 0
DWIDTH 11 0
BBX 10 18 1 -4
BITMAP
0C00
1200
0000
0000
3700
4080
8080
8080
8040
8080
8080
4080
4100
3E00
0000
0000
0000
0C00
ENDCHAR
STARTCHAR 1EDA
ENCODING 7898
SWIDTH 720 0
DWIDTH 14 0
BBX 12 18 1 0
BITMAP
0100
0100
0200
0020
0FC0
3040
4020
4010
8010
8010
8010
8010
8010
8010
4010
4020
2040
1F80
ENDCHAR
STARTCHAR 1EDB
ENCODING 7899
SWIDTH 565 0
DWIDTH 11 0
BBX 10 15 1 0
BITMAP
0200
0200
0400
0080
0080
3700
4080
8080
8080
8040
8080
8080
4080
4100
3E00
ENDCHAR
STARTCHAR 1EDC
ENCODING 7900
SWIDTH 720 0
DWIDTH 14 0
BBX 12 18 1 0
BITMAP
0800
0400
0400
0020
0FC0
3040
4020
4010
8010
8010
8010
8010
8010
8010
4010
4020
2040
1F80
ENDCHAR
STARTCHAR 1EDD
ENCODING 7901
SWIDTH 565 0
DWIDTH 11 0
BBX 10 15 1 0
BITMAP
2000
1000
1000
0880
0080
3700
4080
8080
8080
8040
8080
8080
4080
4100
3E00
ENDCHAR
STARTCHAR 1EDE
ENCODING 7902
SWIDTH 720 0
DWIDTH 14 0
BBX 12 18 1 0
BITMAP
0700
0100
0200
0020
0FC0
3040
4020
4010
8010
8010
8010
8010
8010
8010
4010
4020
2040
1F80
ENDCHAR
STARTCHAR 1EDF
ENCODING 7903
SWIDTH 565 0
DWIDTH 11 0
BBX 10 15 1 0
BITMAP
0C00
1200
0400
0080
0080
3700
4080
8080
8080
8040
8080
8080
4080
4100
3E00
ENDCHAR
STARTCHAR 1EE0
ENCODING 7904
SWIDTH 720 0
DWIDTH 14 0
BBX 12 17 1 0
BITMAP
0E80
0100
0020
0FC0
3040
4020
4010
8010
8010
8010
8010
8010
8010
4010
4020
2040
1F80
ENDCHAR
STARTCHAR 1EE1
ENCODING 7905
SWIDTH 565 0
DWIDTH 11 0
BBX 10 14 1 0
BITMAP
1800
2600
0080
0080
3700
4080
8080
8080
8040
8080
8080
4080
4100
3E00
ENDCHAR
STARTCHAR 1EE2
ENCODING 7906
SWIDTH 720 0
DWIDTH 14 0
BBX 12 19 1 -4
BITMAP
0020
0FC0
3040
4020
4010
8010
8010
8010
8010
8010
8010
4010
4020
2040
1F80
0000
0000
0000
0200
ENDCHAR
STARTCHAR 1EE3
ENCODING 7907
SWIDTH 565 0
DWIDTH 11 0
BBX 10 16 1 -4
BITMAP
0080
0080
3700
4080
8080
8080
8040
8080
8080
4080
4100
3E00
0000
0000
0000
0C00
ENDCHAR
STARTCHAR 1EE4
ENCODING 7908
SWIDTH 668 0
DWIDTH 13 0
BBX 11 18 1 -4
BITMAP
8020
8020
8020
8020
8020
8020
8020
8020
8020
8020
8040
4040
4040
3B80
0400
0000
0000
0400
ENDCHAR
STARTCHAR 1EE5
ENCODING 7909
SWIDTH 565 0
DWIDTH 11 0
BBX 8 14 2 -4
BITMAP
81
81
81
81
81
81
81
81
43
3D
00
00
10
10
ENDCHAR
STARTCHAR 1EE6
ENCODING 7910
SWIDTH 668 0
DWIDTH 13 0
BBX 11 18 1 0
BITMAP
0E00
0200
0200
0000
8020
8020
8020
8020
8020
8020
8020
8020
8020
8020
8040
4040
4040
3F80
ENDCHAR
STARTCHAR 1EE7
ENCODING 7911
SWIDTH 565 0
DWIDTH 11 0
BBX 8 15 2 0
BITMAP
18
28
08
10
00
81
81
81
81
81
81
81
81
43
3D
ENDCHAR
STARTCHAR 1EE8
ENCODING 7912
SWIDTH 668 0
DWIDTH 13 0
BBX 13 18 1 0
BITMAP
0100
0200
0400
0008
8030
8020
8020
8020
8020
8020
8020
8020
8020
8020
8040
4040
4040
3F80
ENDCHAR
STARTCHAR 1EE9
ENCODING 7913
SWIDTH 617 0
DWIDTH 12 0
BBX 10 15 2 0
BITMAP
0400
0800
0800
1000
0040
8180
8100
8100
8100
8100
8100
8100
8100
4300
3D00
ENDCHAR
STARTCHAR 1EEA
ENCODING 7914
SWIDTH 668 0
DWIDTH 13 0
BBX 13 18 1 0
BITMAP
1000
0800
0400
0008
8030
8020
8020
8020
8020
8020
8020
8020
8020
8020
8040
4040
4040
3F80
ENDCHAR
STARTCHAR 1EEB
ENCODING 7915
SWIDTH 617 0
DWIDTH 12 0
BBX 10 15 2 0
BITMAP
4000
2000
2000
1000
0040
8180
8100
8100
8100
8100
8100
8100
8100
4300
3D00
ENDCHAR
STARTCHAR 1EEC
ENCODING 7916
SWIDTH 668 0
DWIDTH 13 0
BBX 13 18 1 0
BITMAP
0E00
0200
0200
0008
8030
8020
8020
8020
8020
8020
8020
8020
8020
8020
8040
4040
4040
3F80
ENDCHAR
STARTCHAR 1EED
ENCODING 7917
SWIDTH 617 0
DWIDTH 12 0
BBX 10 15 2 0
BITMAP
1800
2800
0800
1000
0040
8180
8100
8100
8100
8100
8100
8100
8100
4300
3D00
ENDCHAR
STARTCHAR 1EEE
ENCODING 7918
SWIDTH 668 0
DWIDTH 13 0
BBX 13 17 1 0
BITMAP
1D00
0200
0008
8030
8020
8020
8020
8020
8020
8020
8020
8020
8020
8040
4040
4040
3F80
ENDCHAR
STARTCHAR 1EEF
ENCODING 7919
SWIDTH 565 0
DWIDTH 11 0
BBX 10 14 2 0
BITMAP
3000
0C00
0000
0040
8180
8100
8100
8100
8100
8100
8100
8100
4300
3D00
ENDCHAR
STARTCHAR 1EF0
ENCODING 7920
SWIDTH 668 0
DWIDTH 13 0
BBX 13 19 1 -4
BITMAP
0008
8030
8020
8020
8020
8020
8020
8020
8020
8020
8020
8040
4040
4040
3B80
0400
0000
0000
0400
ENDCHAR
STARTCHAR 1EF1
ENCODING 7921
SWIDTH 617 0
DWIDTH 12 0
BBX 10 15 2 -3
BITMAP
0040
8180
8100
8100
8100
8100
8100
8100
8100
4300
3D00
0000
0000
1000
1000
ENDCHAR
STARTCHAR 1EF2
ENCODING 7922
SWIDTH 565 0
DWIDTH 11 0
BBX 9 18 1 0
BITMAP
2000
1000
1000
0000
8080
8080
4100
4100
2200
2200
1400
1400
0800
0800
0800
0800
0800
0800
ENDCHAR
STARTCHAR 1EF3
ENCODING 7923
SWIDTH 514 0
DWIDTH 10 0
BBX 8 19 1 -4
BITMAP
20
20
10
00
00
81
81
42
42
44
24
24
18
18
10
10
20
20
C0
ENDCHAR
STARTCHAR 1EF4
ENCODING 7924
SWIDTH 565 0
DWIDTH 11 0
BBX 9 18 1 -4
BITMAP
8080
8080
4100
4100
2200
2200
1400
1400
0800
0800
0800
0800
0800
0800
0000
0000
0800
0800
ENDCHAR
STARTCHAR 1EF5
ENCODING 7925
SWIDTH 514 0
DWIDTH 10 0
BBX 8 14 1 -4
BITMAP
81
81
42
42
44
24
24
18
18
10
10
20
22
C2
ENDCHAR
STARTCHAR 1EF6
ENCODING 7926
SWIDTH 565 0
DWIDTH 11 0
BBX 9 18 1 0
BITMAP
1C00
0400
0400
0000
8080
8080
4100
4100
2200
2200
1400
1400
0800
0800
0800
0800
0800
0800
ENDCHAR
STARTCHAR 1EF7
ENCODING 7927
SWIDTH 514 0
DWIDTH 10 0
BBX 8 19 1 -4
BITMAP
18
24
08
00
00
81
81
42
42
44
24
24
18
18
10
10
20
20
C0
ENDCHAR
STARTCHAR 1EF8
ENCODING 7928
SWIDTH 565 0
DWIDTH 11 0
BBX 9 17 1 0
BITMAP
3A00
0400
0000
8080
8080
4100
4100
2200
2200
1400
1400
0800
0800
0800
0800
0800
0800
ENDCHAR
STARTCHAR 1EF9
ENCODING 7929
SWIDTH 514 0
DWIDTH 10 0
BBX 8 18 1 -4
BITMAP
30
0C
00
00
81
81
42
42
44
24
24
18
18
10
10
20
20
C0
ENDCHAR
STARTCHAR 2013
ENCODING 8211
SWIDTH 617 0
DWIDTH 12 0
BBX 7 1 3 6
BITMAP
FE
ENDCHAR
STARTCHAR 2014
ENCODING 8212
SWIDTH 771 0
DWIDTH 15 0
BBX 9 1 3 6
BITMAP
FF80
ENDCHAR
STARTCHAR 2018
ENCODING 8216
SWIDTH 257 0
DWIDTH 5 0
BBX 2 4 2 10
BITMAP
80
80
C0
C0
ENDCHAR
STARTCHAR 2019
ENCODING 8217
SWIDTH 205 0
DWIDTH 4 0
BBX 2 4 2 9
BITMAP
80
C0
40
80
ENDCHAR
STARTCHAR 201A
ENCODING 8218
SWIDTH 257 0
DWIDTH 5 0
BBX 1 3 2 -3
BITMAP
80
80
80
ENDCHAR
STARTCHAR 201C
ENCODING 8220
SWIDTH 462 0
DWIDTH 9 0
BBX 6 4 2 10
BITMAP
48
88
CC
CC
ENDCHAR
STARTCHAR 201D
ENCODING 8221
SWIDTH 462 0
DWIDTH 9 0
BBX 5 4 2 9
BITMAP
88
48
88
88
ENDCHAR
STARTCHAR 201E
ENCODING 8222
SWIDTH 462 0
DWIDTH 9 0
BBX 5 3 2 -3
BITMAP
98
88
88
ENDCHAR
STARTCHAR 2020
ENCODING 8224
SWIDTH 565 0
DWIDTH 11 0
BBX 7 18 2 -4
BITMAP
10
10
10
10
FE
10
10
10
10
10
10
10
10
10
10
10
10
10
ENDCHAR
STARTCHAR 2021
ENCODING 8225
SWIDTH 565 0
DWIDTH 11 0
BBX 7 18 2 -4
BITMAP
10
10
10
10
FE
10
10
10
10
10
10
10
10
10
FE
10
10
10
ENDCHAR
STARTCHAR 2022
ENCODING 8226
SWIDTH 257 0
DWIDTH 5 0
BBX 2 3 2 6
BITMAP
C0
C0
C0
ENDCHAR
STARTCHAR 2026
ENCODING 8230
SWIDTH 720 0
DWIDTH 14 0
BBX 11 1 1 0
BITMAP
C420
ENDCHAR
STARTCHAR 2030
ENCODING 8240
SWIDTH 1182 0
DWIDTH 23 0
BBX 23 14 0 0
BITMAP
301000
481000
842000
842000
484000
304000
008000
008000
010000
021F1E
021122
041122
041122
081E1E
ENDCHAR
STARTCHAR 2039
ENCODING 8249
SWIDTH 308 0
DWIDTH 6 0
BBX 4 8 1 2
BITMAP
10
20
40
80
80
40
20
10
ENDCHAR
STARTCHAR 203A
ENCODING 8250
SWIDTH 308 0
DWIDTH 6 0
BBX 4 8 1 2
BITMAP
80
40
20
10
10
20
40
80
ENDCHAR
STARTCHAR 2044
ENCODING 8260
SWIDTH 411 0
DWIDTH 8 0
BBX 9 14 0 0
BITMAP
0080
0100
0200
0200
0400
0400
0800
1000
1000
2000
2000
4000
8000
8000
ENDCHAR
STARTCHAR 2070
ENCODING 8304
SWIDTH 308 0
DWIDTH 6 0
BBX 5 8 1 7
BITMAP
60
90
88
88
88
88
90
60
ENDCHAR
STARTCHAR 2074
ENCODING 8308
SWIDTH 308 0
DWIDTH 6 0
BBX 5 8 1 7
BITMAP
10
30
50
90
90
F8
10
10
ENDCHAR
STARTCHAR 2075
ENCODING 8309
SWIDTH 257 0
DWIDTH 5 0
BBX 4 8 1 7
BITMAP
F0
80
80
F0
10
10
90
60
ENDCHAR
STARTCHAR 2076
ENCODING 8310
SWIDTH 257 0
DWIDTH 5 0
BBX 4 8 1 7
BITMAP
20
40
80
F0
90
90
90
60
ENDCHAR
STARTCHAR 2077
ENCODING 8311
SWIDTH 257 0
DWIDTH 5 0
BBX 4 7 1 7
BITMAP
F0
10
20
20
40
40
40
ENDCHAR
STARTCHAR 2078
ENCODING 8312
SWIDTH 308 0
DWIDTH 6 0
BBX 5 8 1 7
BITMAP
60
90
90
90
F0
88
88
70
ENDCHAR
STARTCHAR 2079
ENCODING 8313
SWIDTH 257 0
DWIDTH 5 0
BBX 4 8 1 7
BITMAP
60
90
90
90
F0
20
20
40
ENDCHAR
STARTCHAR 2080
ENCODING 8320
SWIDTH 308 0
DWIDTH 6 0
BBX 5 8 1 -5
BITMAP
60
90
90
88
88
88
90
60
ENDCHAR
STARTCHAR 2081
ENCODING 8321
SWIDTH 205 0
DWIDTH 4 0
BBX 3 7 1 -5
BITMAP
C0
40
40
40
40
40
E0
ENDCHAR
STARTCHAR 2082
ENCODING 8322
SWIDTH 257 0
DWIDTH 5 0
BBX 4 8 1 -5
BITMAP
60
90
10
10
20
40
80
F0
ENDCHAR
STARTCHAR 2083
ENCODING 8323
SWIDTH 257 0
DWIDTH 5 0
BBX 4 8 1 -5
BITMAP
60
90
10
10
30
10
10
E0
ENDCHAR
STARTCHAR 2084
ENCODING 8324
SWIDTH 308 0
DWIDTH 6 0
BBX 4 7 1 -5
BITMAP
30
50
50
90
90
70
10
ENDCHAR
STARTCHAR 2085
ENCODING 8325
SWIDTH 257 0
DWIDTH 5 0
BBX 4 7 1 -5
BITMAP
F0
80
F0
10
10
10
E0
ENDCHAR
STARTCHAR 2086
ENCODING 8326
SWIDTH 257 0
DWIDTH 5 0
BBX 4 8 1 -5
BITMAP
20
40
80
E0
90
90
90
60
ENDCHAR
STARTCHAR 2087
ENCODING 8327
SWIDTH 257 0
DWIDTH 5 0
BBX 4 7 1 -5
BITMAP
F0
20
20
20
40
40
80
ENDCHAR
STARTCHAR 2088
ENCODING 8328
SWIDTH 308 0
DWIDTH 6 0
BBX 5 8 1 -5
BITMAP
60
90
90
90
F0
88
88
70
ENDCHAR
STARTCHAR 2089
ENCODING 8329
SWIDTH 257 0
DWIDTH 5 0
BBX 4 7 1 -5
BITMAP
60
90
90
90
B0
50
20
ENDCHAR
STARTCHAR 20AB
ENCODING 8363
SWIDTH 565 0
DWIDTH 11 0
BBX 10 16 1 0
BITMAP
0080
0080
07C0
0080
3E80
C180
8080
8080
8080
8080
8080
4180
3E80
0000
0000
7F80
ENDCHAR
STARTCHAR 20AC
ENCODING 8364
SWIDTH 720 0
DWIDTH 14 0
BBX 13 14 0 0
BITMAP
0100
06E0
0810
1008
2008
FF00
2000
2000
2000
7E00
1008
1010
0810
07E0
ENDCHAR
STARTCHAR 2122
ENCODING 8482
SWIDTH 360 0
DWIDTH 7 0
BBX 6 4 1 10
BITMAP
C4
9C
AC
04
ENDCHAR
STARTCHAR 215B
ENCODING 8539
SWIDTH 874 0
DWIDTH 17 0
BBX 15 14 1 0
BITMAP
4010
C020
4040
4040
4080
4080
4100
A21C
0222
0422
041C
0822
1022
101E
ENDCHAR
STARTCHAR 215C
ENCODING 8540
SWIDTH 771 0
DWIDTH 15 0
BBX 14 14 1 0
BITMAP
6020
9020
1040
1080
3080
1100
9100
6238
0444
0444
0838
0844
1044
2038
ENDCHAR
STARTCHAR 215D
ENCODING 8541
SWIDTH 874 0
DWIDTH 17 0
BBX 15 14 1 0
BITMAP
F000
8020
8040
F040
1080
1080
D100
221C
0222
0422
041C
0822
1022
101E
ENDCHAR
STARTCHAR 215E
ENCODING 8542
SWIDTH 874 0
DWIDTH 17 0
BBX 15 14 1 0
BITMAP
F010
1020
2040
2040
2080
4080
4100
020C
0212
0412
040C
0832
1022
101E
ENDCHAR
STARTCHAR 2212
ENCODING 8722
SWIDTH 565 0
DWIDTH 11 0
BBX 6 1 3 6
BITMAP
FC
ENDCHAR
STARTCHAR 2215
ENCODING 8725
SWIDTH 462 0
DWIDTH 9 0
BBX 8 14 1 0
BITMAP
01
02
02
04
04
08
08
10
10
20
20
40
40
80
ENDCHAR
STARTCHAR 2248
ENCODING 8776
SWIDTH 514 0
DWIDTH 10 0
BBX 6 5 2 4
BITMAP
E4
98
00
00
FC
ENDCHAR
STARTCHAR 2260
ENCODING 8800
SWIDTH 668 0
DWIDTH 13 0
BBX 9 12 2 0
BITMAP
0100
0100
0200
FF80
0400
0800
0800
1000
7F80
2000
4000
4000
ENDCHAR
STARTCHAR 2264
ENCODING 8804
SWIDTH 565 0
DWIDTH 11 0
BBX 8 10 2 0
BITMAP
02
0C
30
C0
60
18
06
00
00
FF
ENDCHAR
STARTCHAR 2265
ENCODING 8805
SWIDTH 565 0
DWIDTH 11 0
BBX 8 10 2 0
BITMAP
40
30
0C
02
04
18
60
80
00
FF
ENDCHAR
ENDFONT
